<svg version="1.1" id="图层_1"
    xmlns="http://www.w3.org/2000/svg"
    xmlns:xlink="http://www.w3.org/1999/xlink" x="0px" y="0px" width="176.5" height="176.5" viewBox="0 0 135.4 135.4" style="enable-background:new 0 0 135.4 135.4;" xml:space="preserve" class="style-removed" preserveAspectRatio="none" data-parent="shape_U6lcQo5nxA">

    <g>
        <linearGradient id="SVGID_1__7MbtkDinl7" gradientUnits="userSpaceOnUse" x1="67.6869" y1="0.8282" x2="67.6869" y2="133.9164">
            <stop offset="0" stop-color="#FFB8C6"></stop>
            <stop offset="0.1839" stop-color="#FCB9C7"></stop>
            <stop offset="0.3396" stop-color="#F1BBCB"></stop>
            <stop offset="0.4849" stop-color="#E0C0D1"></stop>
            <stop offset="0.6239" stop-color="#C7C6D9"></stop>
            <stop offset="0.7586" stop-color="#A7CEE4"></stop>
            <stop offset="0.8881" stop-color="#81D8F1"></stop>
            <stop offset="1" stop-color="#59E2FF"></stop>
        </linearGradient>
        <path d="M135.4,67.7c0-5.5-0.7-11-2-16.3c-0.1-0.5-0.6-0.8-1-0.7c-0.5,0.1-0.8,0.5-0.8,0.9l0,0.6
		c0,20.3-12.2,37.7-29.6,45.5v-7c0-0.5-0.4-0.9-0.9-0.9c-0.5,0-0.9,0.4-0.9,0.9v7.8c-4.5,1.8-9.2,2.9-14.2,3.3v-3.5
		c0-0.5-0.4-0.9-0.9-0.9s-0.9,0.4-0.9,0.9v3.6c-0.8,0-1.5,0.1-2.3,0.1c-1,0-2,0-3-0.1V90c0-0.5-0.4-0.9-0.9-0.9
		c-0.5,0-0.9,0.4-0.9,0.9v11.7c-12.2-1.2-23.1-6.8-31.1-15.2V38c0-0.5-0.4-0.9-0.9-0.9c-0.5,0-0.9,0.4-0.9,0.9v46.5
		c-7.4-8.7-12-20-12-32.3c0-25.5,19.6-47,44.9-49.5v12.1c0,0.5,0.4,0.9,0.9,0.9c0.5,0,0.9-0.4,0.9-0.9V1.7c0,0,0-0.1,0-0.1
		c0-0.1,0-0.1,0-0.2c0,0,0-0.1-0.1-0.1c0-0.1-0.1-0.1-0.1-0.2c0,0-0.1-0.1-0.1-0.1c0,0-0.1-0.1-0.2-0.1c0,0-0.1,0-0.1-0.1
		c0,0-0.1,0-0.1,0C74.6,0.3,71.1,0,67.7,0C30.4,0,0,30.4,0,67.7c0,14.4,4.6,27.8,12.3,38.8c0,0,0,0.1,0,0.1c0.1,0.1,0.2,0.2,0.3,0.3
		c6,8.4,14,15.5,23.2,20.4c0.1,0.1,0.2,0.1,0.3,0.1c9.5,5,20.2,7.9,31.7,7.9c12.2,0,23.7-3.3,33.6-9c0.2,0,0.3-0.1,0.4-0.2
		c4.8-2.8,9.3-6.2,13.2-10.1c0.1-0.1,0.2-0.2,0.3-0.3C127.7,103.5,135.4,86.5,135.4,67.7z M67.7,1.8c0.9,0,1.8,0,2.8,0.1
		c-23,5.2-40.2,26.1-40.2,50.3c0,13.6,5.3,25.9,13.9,35.1c0.1,0.2,0.2,0.4,0.4,0.5c9.4,9.8,22.6,16,37.3,16c1,0,2.1,0,3.1-0.1
		c0,0,0.1,0,0.1,0c0.1,0,0.1,0,0.2,0c5.7-0.4,11.1-1.7,16.1-3.7c0.1,0,0.1,0,0.2-0.1c16.7-6.9,29-22.3,31.5-40.8
		c0.4,2.9,0.6,5.7,0.6,8.6c0,18.2-7.4,34.7-19.4,46.7c-2.4-0.1-4.7-0.8-6.8-1.8V109l1.7-1.5c0.2-0.1,0.2-0.3,0.2-0.5v-2.2
		c0-0.4-0.3-0.7-0.7-0.7c-0.4,0-0.7,0.3-0.7,0.7v1.9l-0.5,0.5v-3.8c0-0.4-0.3-0.7-0.7-0.7c-0.4,0-0.7,0.3-0.7,0.7v5.5l-0.5-0.4v-2.8
		c0-0.4-0.3-0.7-0.7-0.7s-0.7,0.3-0.7,0.7v3.1c0,0.2,0.1,0.4,0.3,0.5l1.7,1.4v1.2c-1.6-0.9-3.2-1.9-4.8-2.8c-4-2.5-8.2-5.2-12.7-5
		c-0.1,0-0.1,0-0.1,0c-1.4,0.1-2.8,0.4-4.2,1c-2.9,1.3-5,2.9-6.7,4.2c-2.3,1.8-4.1,3.2-7.2,3.7c-4.1-2.9-7.9-6.1-11.6-9.2
		c-9-7.5-16.9-14-25-14c-0.3,0-0.6,0-0.8,0c0,0-0.1,0-0.1,0c-4.2,0.3-7.5,2.7-10.3,5.6v-3.2l2.1-1.8c0.2-0.2,0.3-0.4,0.3-0.6V87
		c0-0.5-0.4-0.8-0.8-0.8s-0.8,0.4-0.8,0.8v2.3l-0.7,0.6v-4.7c0-0.5-0.4-0.8-0.8-0.8s-0.8,0.4-0.8,0.8v6.7l-0.7-0.6v-3.4
		c0-0.5-0.4-0.8-0.8-0.8s-0.8,0.4-0.8,0.8v3.8c0,0.3,0.1,0.5,0.3,0.7l2.1,1.7v3.1c-0.8,1-1.6,1.9-2.4,2.9c-1.7,2-3.2,4-4.7,4.9
		C6.1,94.4,1.8,81.5,1.8,67.7C1.8,31.4,31.4,1.8,67.7,1.8z M100.8,124.6c-6.1-0.1-11.7-1.6-16.9-3.8c0.2-1,0.3-2.6-0.6-4.9
		c-1.3-3.5-0.3-4.6,3-7.6c0.8-0.7,1.6-1.5,2.5-2.5c3.8,0,7.4,2.2,11.4,4.8c3.8,2.4,7.7,4.8,12.2,5.5
		C108.8,119.3,104.9,122.2,100.8,124.6z M81.5,116.5c0.6,1.7,0.7,2.8,0.6,3.5c-3.5-1.6-6.9-3.6-10.1-5.8c2.6-0.8,4.4-2.2,6.3-3.6
		c1.8-1.4,3.6-2.8,6.4-4c0.3-0.1,0.5-0.2,0.8-0.3c-0.2,0.2-0.4,0.4-0.6,0.6C81.7,110,79.7,111.8,81.5,116.5z M14.5,106.5
		c1.6-1.1,3.2-3.1,5-5.3c2.9-3.6,6.2-7.6,10.4-9.1c-4.2,4.8-6.2,9-6,12.6c0.2,4.4,3.3,7.5,6.4,10.3c4.1,3.6,4.9,7.8,5.1,10
		C27.2,120.4,20.1,114.1,14.5,106.5z M37.3,126.1c0.1-1.9-0.3-7.6-5.7-12.4c-2.9-2.5-5.7-5.3-5.8-9c-0.1-3.6,2.2-7.9,7.2-13.2
		c0.2,0,0.3,0,0.5,0c7.5,0,15,6.3,23.8,13.5c11.2,9.3,23.8,19.7,40.5,21.2c-9,4.6-19.2,7.3-30,7.3C56.7,133.5,46.4,130.8,37.3,126.1
		z" fill="url(#SVGID_1__7MbtkDinl7)" stroke-width="0"></path>
        <linearGradient id="SVGID_2__EQkClSC9hE" gradientUnits="userSpaceOnUse" x1="46.1995" y1="0.8282" x2="46.1995" y2="133.9164">
            <stop offset="0" stop-color="#FFB8C6"></stop>
            <stop offset="0.1839" stop-color="#FCB9C7"></stop>
            <stop offset="0.3396" stop-color="#F1BBCB"></stop>
            <stop offset="0.4849" stop-color="#E0C0D1"></stop>
            <stop offset="0.6239" stop-color="#C7C6D9"></stop>
            <stop offset="0.7586" stop-color="#A7CEE4"></stop>
            <stop offset="0.8881" stop-color="#81D8F1"></stop>
            <stop offset="1" stop-color="#59E2FF"></stop>
        </linearGradient>
        <path d="M48.6,107.3c-0.5,0-0.8,0.4-0.8,0.8v2.3l-0.7,0.7v-4.9c0-0.5-0.4-0.8-0.8-0.8c-0.5,0-0.8,0.4-0.8,0.8v7
		l-0.7-0.6v-3.5c0-0.5-0.4-0.8-0.8-0.8c-0.5,0-0.8,0.4-0.8,0.8v3.9c0,0.3,0.1,0.5,0.3,0.7l2.1,1.8v3.5c0,0.5,0.4,0.8,0.8,0.8
		c0.5,0,0.8-0.4,0.8-0.8v-5.6l2.2-1.9c0.2-0.2,0.3-0.4,0.3-0.6v-2.7C49.5,107.7,49.1,107.3,48.6,107.3z" fill="url(#SVGID_2__EQkClSC9hE)" stroke-width="0"></path>
        <linearGradient id="SVGID_3__rfVcHS8LfF" gradientUnits="userSpaceOnUse" x1="23.1744" y1="0.8282" x2="23.1744" y2="133.9164">
            <stop offset="0" stop-color="#FFB8C6"></stop>
            <stop offset="0.1839" stop-color="#FCB9C7"></stop>
            <stop offset="0.3396" stop-color="#F1BBCB"></stop>
            <stop offset="0.4849" stop-color="#E0C0D1"></stop>
            <stop offset="0.6239" stop-color="#C7C6D9"></stop>
            <stop offset="0.7586" stop-color="#A7CEE4"></stop>
            <stop offset="0.8881" stop-color="#81D8F1"></stop>
            <stop offset="1" stop-color="#59E2FF"></stop>
        </linearGradient>
        <path d="M18.2,63.9c2.6,0.2,4.7,2.9,4.9,6.2c0,0,0,0,0,0c0.2-3.3,2.3-6,4.9-6.2c0,0,0,0,0,0c-2.6-0.2-4.7-2.9-4.9-6.2
		c0,0,0,0,0,0C23,61,20.9,63.7,18.2,63.9C18.2,63.9,18.2,63.9,18.2,63.9z" fill="url(#SVGID_3__rfVcHS8LfF)" stroke-width="0"></path>
        <linearGradient id="SVGID_4__pFFYAD6mra" gradientUnits="userSpaceOnUse" x1="15.5596" y1="0.8282" x2="15.5596" y2="133.9164">
            <stop offset="0" stop-color="#FFB8C6"></stop>
            <stop offset="0.1839" stop-color="#FCB9C7"></stop>
            <stop offset="0.3396" stop-color="#F1BBCB"></stop>
            <stop offset="0.4849" stop-color="#E0C0D1"></stop>
            <stop offset="0.6239" stop-color="#C7C6D9"></stop>
            <stop offset="0.7586" stop-color="#A7CEE4"></stop>
            <stop offset="0.8881" stop-color="#81D8F1"></stop>
            <stop offset="1" stop-color="#59E2FF"></stop>
        </linearGradient>
        <path d="M15.6,54.1C15.6,54.1,15.6,54.1,15.6,54.1c0.1-1.8,1.2-3.2,2.6-3.4c0,0,0,0,0,0c-1.4-0.1-2.5-1.6-2.6-3.4
		c0,0,0,0,0,0c-0.1,1.8-1.2,3.2-2.6,3.4c0,0,0,0,0,0C14.3,50.9,15.4,52.3,15.6,54.1z" fill="url(#SVGID_4__pFFYAD6mra)" stroke-width="0"></path>
        <linearGradient id="SVGID_5__p7uEmr3CNw" gradientUnits="userSpaceOnUse" x1="49.9178" y1="0.8282" x2="49.9178" y2="133.9164">
            <stop offset="0" stop-color="#FFB8C6"></stop>
            <stop offset="0.1839" stop-color="#FCB9C7"></stop>
            <stop offset="0.3396" stop-color="#F1BBCB"></stop>
            <stop offset="0.4849" stop-color="#E0C0D1"></stop>
            <stop offset="0.6239" stop-color="#C7C6D9"></stop>
            <stop offset="0.7586" stop-color="#A7CEE4"></stop>
            <stop offset="0.8881" stop-color="#81D8F1"></stop>
            <stop offset="1" stop-color="#59E2FF"></stop>
        </linearGradient>
        <path d="M49,68.5v15.1c0,0.5,0.4,0.9,0.9,0.9c0.5,0,0.9-0.4,0.9-0.9V68.5c0-0.5-0.4-0.9-0.9-0.9
		C49.4,67.5,49,68,49,68.5z" fill="url(#SVGID_5__p7uEmr3CNw)" stroke-width="0"></path>
        <linearGradient id="SVGID_6__BDbB1P9ek6" gradientUnits="userSpaceOnUse" x1="82.1286" y1="0.8282" x2="82.1286" y2="133.9164">
            <stop offset="0" stop-color="#FFB8C6"></stop>
            <stop offset="0.1839" stop-color="#FCB9C7"></stop>
            <stop offset="0.3396" stop-color="#F1BBCB"></stop>
            <stop offset="0.4849" stop-color="#E0C0D1"></stop>
            <stop offset="0.6239" stop-color="#C7C6D9"></stop>
            <stop offset="0.7586" stop-color="#A7CEE4"></stop>
            <stop offset="0.8881" stop-color="#81D8F1"></stop>
            <stop offset="1" stop-color="#59E2FF"></stop>
        </linearGradient>
        <path d="M82.1,20c0.5,0,0.9-0.4,0.9-0.9v-7.2c0-0.5-0.4-0.9-0.9-0.9s-0.9,0.4-0.9,0.9v7.2C81.2,19.6,81.6,20,82.1,20z
		" fill="url(#SVGID_6__BDbB1P9ek6)" stroke-width="0"></path>
        <linearGradient id="SVGID_7__IWeFdGT5fb" gradientUnits="userSpaceOnUse" x1="9.8474" y1="0.8282" x2="9.8474" y2="133.9164">
            <stop offset="0" stop-color="#FFB8C6"></stop>
            <stop offset="0.1839" stop-color="#FCB9C7"></stop>
            <stop offset="0.3396" stop-color="#F1BBCB"></stop>
            <stop offset="0.4849" stop-color="#E0C0D1"></stop>
            <stop offset="0.6239" stop-color="#C7C6D9"></stop>
            <stop offset="0.7586" stop-color="#A7CEE4"></stop>
            <stop offset="0.8881" stop-color="#81D8F1"></stop>
            <stop offset="1" stop-color="#59E2FF"></stop>
        </linearGradient>
        <path d="M9.8,77.6c-0.9,0-1.6,0.7-1.6,1.6c0,0.9,0.7,1.6,1.6,1.6c0.9,0,1.6-0.7,1.6-1.6C11.4,78.3,10.7,77.6,9.8,77.6
		z" fill="url(#SVGID_7__IWeFdGT5fb)" stroke-width="0"></path>
        <linearGradient id="SVGID_8__toJ18V3OkI" gradientUnits="userSpaceOnUse" x1="24.2697" y1="0.8282" x2="24.2697" y2="133.9164">
            <stop offset="0" stop-color="#FFB8C6"></stop>
            <stop offset="0.1839" stop-color="#FCB9C7"></stop>
            <stop offset="0.3396" stop-color="#F1BBCB"></stop>
            <stop offset="0.4849" stop-color="#E0C0D1"></stop>
            <stop offset="0.6239" stop-color="#C7C6D9"></stop>
            <stop offset="0.7586" stop-color="#A7CEE4"></stop>
            <stop offset="0.8881" stop-color="#81D8F1"></stop>
            <stop offset="1" stop-color="#59E2FF"></stop>
        </linearGradient>
        <path d="M24.3,47.9c-0.6,0-1.1,0.5-1.1,1.1c0,0.6,0.5,1.1,1.1,1.1c0.6,0,1.1-0.5,1.1-1.1
		C25.4,48.4,24.9,47.9,24.3,47.9z" fill="url(#SVGID_8__toJ18V3OkI)" stroke-width="0"></path>
        <linearGradient id="SVGID_9__8YyOSkuaa6" gradientUnits="userSpaceOnUse" x1="28.8925" y1="0.8282" x2="28.8925" y2="133.9164">
            <stop offset="0" stop-color="#FFB8C6"></stop>
            <stop offset="0.1839" stop-color="#FCB9C7"></stop>
            <stop offset="0.3396" stop-color="#F1BBCB"></stop>
            <stop offset="0.4849" stop-color="#E0C0D1"></stop>
            <stop offset="0.6239" stop-color="#C7C6D9"></stop>
            <stop offset="0.7586" stop-color="#A7CEE4"></stop>
            <stop offset="0.8881" stop-color="#81D8F1"></stop>
            <stop offset="1" stop-color="#59E2FF"></stop>
        </linearGradient>
        <path d="M28.1,74.4c0,0.4,0.3,0.7,0.7,0.7c0.4,0,0.7-0.3,0.7-0.7c0-0.4-0.3-0.7-0.7-0.7C28.5,73.7,28.1,74,28.1,74.4z
		" fill="url(#SVGID_9__8YyOSkuaa6)" stroke-width="0"></path>
        <linearGradient id="SVGID_10__vRuChABtC1" gradientUnits="userSpaceOnUse" x1="24.0919" y1="0.8282" x2="24.0919" y2="133.9164">
            <stop offset="0" stop-color="#FFB8C6"></stop>
            <stop offset="0.1839" stop-color="#FCB9C7"></stop>
            <stop offset="0.3396" stop-color="#F1BBCB"></stop>
            <stop offset="0.4849" stop-color="#E0C0D1"></stop>
            <stop offset="0.6239" stop-color="#C7C6D9"></stop>
            <stop offset="0.7586" stop-color="#A7CEE4"></stop>
            <stop offset="0.8881" stop-color="#81D8F1"></stop>
            <stop offset="1" stop-color="#59E2FF"></stop>
        </linearGradient>
        <circle cx="24.1" cy="27.8" r="1.6" fill="url(#SVGID_10__vRuChABtC1)" stroke-width="0"></circle>
    </g>
</svg>