<svg viewBox="0 0 1024 1024" version="1.1"
    xmlns="http://www.w3.org/2000/svg">
    <path d="M928.6 208c-27 1.4-51.8 18.6-62.7 43.4-12.1 27.7-6.2 56 10 76.3l-7.7 32.3c-15.7 66-74.6 112.5-142.5 112.5-76.4 0-139.9-58.7-146-134.8l-7.3-91.4c35.2-23.4 56-66.8 45.9-114-8.7-40.5-41.5-73.2-82.1-81.7C466.5 35.9 405 88.9 405 156.2c0 37.6 19.3 70.8 48.5 90.1l-7.3 91.4c-6.1 76.1-69.6 134.8-146 134.8-67.8 0-126.8-46.6-142.5-112.5l-7.7-32.3c16.2-20.2 22.1-48.6 10-76.3-10.8-24.8-35.6-42.1-62.7-43.4-49.4-2.5-85.3 40.7-77.4 86.3 4.4 25.2 21.1 45.2 42.8 54.8l65.6 463.5h769v-0.2l65.6-463.3c21.8-9.6 38.5-29.6 42.8-54.8 8.2-45.6-27.7-88.8-77.1-86.3z" fill="#F9C85D" p-id="6762"></path>
    <path d="M781.3 961.3h-541c-63 0-114-51-114-114h769c0 63-51.1 114-114 114z" fill="#83C6EF" p-id="6763"></path>
    <path d="M93 281.4m-73.9 0a73.9 73.9 0 1 0 147.8 0 73.9 73.9 0 1 0-147.8 0Z" fill="#F9C85D" p-id="6764"></path>
    <path d="M928.6 208c-27 1.4-51.8 18.6-62.7 43.4-12.1 27.7-6.2 56 10 76.3l-7.7 32.3c-15.7 66-74.6 112.5-142.5 112.5-76.4 0-139.9-58.7-146-134.8l-7.3-91.4c35.2-23.4 56-66.8 45.9-114-8.7-40.5-41.5-73.2-82.1-81.7-7.9-1.7-15.7-2.3-23.4-2.3v764.4h384.5v-0.2l65.6-463.3c21.8-9.6 38.5-29.6 42.8-54.8 8.2-45.7-27.7-88.9-77.1-86.4z" fill="#FFB103" p-id="6765"></path>
    <path d="M933.3 281.4m-73.8 0a73.8 73.8 0 1 0 147.6 0 73.8 73.8 0 1 0-147.6 0Z" fill="#F9C85D" p-id="6766"></path>
    <path d="M513 154.3m-109.2 0a109.2 109.2 0 1 0 218.4 0 109.2 109.2 0 1 0-218.4 0Z" fill="#F9C85D" p-id="6767"></path>
    <path d="M510.8 847.3v114H784c61.5 0 111.3-49.8 111.3-111.3v-2.7H510.8z" fill="#429BCF" p-id="6768"></path>
    <path d="M146.4 230.5c-8.7 45.1-45.9 84.2-99.2 108.5 12.6 10.1 28.4 16.3 45.8 16.3 40.8 0 73.9-33.1 73.9-73.9 0-19.7-7.9-37.6-20.5-50.9zM986.9 231.1c-10.1 44.5-47.9 82.7-101.3 106.3 12.9 11 29.4 17.9 47.7 17.9 40.8 0 73.8-33 73.8-73.8-0.1-19.6-7.8-37.2-20.2-50.4zM589.1 76c2.3 6.6 3.6 13.5 3.6 20.5 0 51.4-64.1 93.1-143.1 93.1-14.3 0-28.1-1.4-41.1-4 13.5 45 55.2 77.7 104.6 77.7 60.3 0 109.2-48.9 109.2-109.2-0.1-30.6-12.8-58.3-33.2-78.1z" fill="#FFB103" p-id="6769"></path>
    <path d="M55.848334 249.331715a8.4 19.9 60 1 0 34.467811-19.9 8.4 19.9 60 1 0-34.467811 19.9Z" fill="#F7EAD0" p-id="6770"></path>
    <path d="M945.164493 246.695113a19.9 8.4 30 1 0 8.4-14.549226 19.9 8.4 30 1 0-8.4 14.549226Z" fill="#F7EAD0" p-id="6771"></path>
    <path d="M469.7 77.7a41.4 10.6 0 1 0 82.8 0 41.4 10.6 0 1 0-82.8 0Z" fill="#F7EAD0" p-id="6772"></path>
    <path d="M546 630.8h-61.4c-13.9 0-25.3-11.4-25.3-25.3s11.4-25.3 25.3-25.3H546c13.9 0 25.3 11.4 25.3 25.3s-11.4 25.3-25.3 25.3z" fill="#DA3329" p-id="6773"></path>
    <path d="M546 580.1h-33v50.7h33c13.9 0 25.3-11.4 25.3-25.3 0-14-11.4-25.4-25.3-25.4z" fill="#C11B16" p-id="6774"></path>
</svg>