<svg width="1024" height="1024" xmlns="http://www.w3.org/2000/svg" version="1.1" class="icon">

 <g>
  <title>Layer 1</title>
  <path id="svg_1" fill="#dbdbdb" d="m512,512"/>
  <path id="svg_2" fill="#5E469A" d="m622.961,707.284c0,30.021 -20.61,54.356 -46.035,54.356l-117.852,0c-25.424,0 -46.035,-24.336 -46.035,-54.356l0,-444.635c0,-30.021 20.611,-54.356 46.035,-54.356l117.852,0c25.425,0 46.035,24.336 46.035,54.356l0,444.635z"/>
  <path id="svg_3" fill="#8BD0DA" d="m411.504,592.481l209.615,0l0,45.784l-209.615,0l0,-45.784zm0.614,-306.848l209.921,0l0,45.783l-209.921,0l0,-45.783z"/>
  <path stroke="null" id="svg_4" fill="#D7415A" d="m413.039,681.539c0,25.425 -20.611,46.035 -46.036,46.035l-73.657,0c-25.424,0 -46.035,-20.61 -46.035,-46.035l0,-313.042c0,-25.425 20.611,-46.036 46.035,-46.036l73.657,0c25.425,0 46.036,20.611 46.036,46.036l0,313.042z"/>
  <path id="svg_5" fill="#DCD6D8" d="m769.354,681.539c0,25.425 -20.611,46.035 -46.036,46.035l-55.242,0c-25.425,0 -46.036,-20.61 -46.036,-46.035l0,-349.871c0,-25.425 20.611,-46.036 46.036,-46.036l55.242,0c25.425,0 46.036,20.611 46.036,46.036l0,349.871z"/>
  <path id="svg_6" p-id="18361" fill="#8BD0DA" d="m413.039,592.481l208.803,0l0,45.784l-208.803,0l0,-45.784zm-0.919,-306.848l210.646,0l0,45.783l-210.646,0l0,-45.783z"/>
  <path id="svg_7" fill="#FFFFFF" d="m622.039,592.481l147.6,0l0,45.784l-147.6,0l0,-45.784zm-0.197,-232.271l147.512,0l0,45.783l-147.512,0l0,-45.783z"/>
  <path id="svg_8" fill="#B1B7C0" d="m666.235,691.667l-44.195,0l-0.198,-351.405l0.924,-18.721s7.563,-33.759 43.47,-35.908c-0.156,8.585 -0.001,406.034 -0.001,406.034z"/>
  <path id="svg_9" p-id="18364" fill="#E19047" d="m247.311,592.481l165.728,0l0,45.784l-165.728,0l0,-45.784zm0,-204.397l165.728,0l0,45.784l-165.728,0l0,-45.784z"/>
  <path id="svg_10" p-id="18365" fill="#C1C6D1" d="m621.842,360.21l44.332,0l0,45.783l-44.332,0l0,-45.783zm0,232.271l44.332,0l0,45.784l-44.332,0l0,-45.784z"/>
  <path id="svg_11" p-id="18366" fill="#AD2946" d="m413.039,681.539c0,25.425 -20.611,46.035 -46.036,46.035l0,-405.113c25.425,0 46.036,20.611 46.036,46.036l0,313.042z"/>
  <path id="svg_12" p-id="18367" fill="#AF6328" d="m367.003,388.084l46.036,0l0,45.784l-46.036,0l0,-45.784zm0,204.397l46.036,0l0,45.784l-46.036,0l0,-45.784z"/>
  <path id="svg_13" p-id="18368" fill="#4086C7" d="m849.456,755.195c0,22.374 -18.138,40.512 -40.511,40.512l-581.89,0c-22.374,0 -40.511,-18.138 -40.511,-40.512s18.137,-40.511 40.511,-40.511l581.89,0c22.373,0.001 40.511,18.137 40.511,40.511z"/>
  <path id="svg_14" p-id="18369" fill="#F5A74B" d="m849.456,732.178c0,22.374 -18.138,40.512 -40.511,40.512l-581.89,0c-22.374,0 -40.511,-18.138 -40.511,-40.512s18.137,-40.511 40.511,-40.511l581.89,0c22.373,0 40.511,18.137 40.511,40.511z"/>
 </g>
</svg>