<svg t="1646233182925" class="icon" viewBox="0 0 1024 1024" version="1.1" xmlns="http://www.w3.org/2000/svg" p-id="8993"
     width="200" height="200">
    <path d="M276.309333 296.618667L96.085333 559.957333 68.266667 1006.933333h324.266666l31.402667-523.264-147.626667-187.050666z"
          fill="#FFFFFF" p-id="8994"></path>
    <path d="M284.330667 306.858667L147.285333 559.957333 119.466667 1006.933333h273.066666l31.402667-523.264-139.605333-176.810666z"
          fill="#FFDEDC" p-id="8995"></path>
    <path d="M921.6 477.866667L665.6 153.6 443.733333 477.866667l-34.133333 529.066666h546.133333l-34.133333-529.066666z"
          fill="#FFFFFF" p-id="8996"></path>
    <path d="M674.474667 164.864L494.933333 477.866667l-34.133333 529.066666h494.933333l-34.133333-529.066666L674.474667 164.864z"
          fill="#9DDAFE" p-id="8997"></path>
    <path d="M667.818667 164.352V1006.933333h283.648l-34.133334-529.066666L667.818667 164.352z" fill="#266BD2"
          p-id="8998"></path>
    <path d="M275.285333 305.152l166.4 183.466667-36.352 516.266666h-125.781333l-4.266667-699.733333z" fill="#F43151"
          p-id="8999"></path>
    <path d="M762.368 1006.933333v-149.162666a51.2 51.2 0 0 1 55.466667-51.2 51.2 51.2 0 0 1 46.933333 51.2V1006.933333"
          fill="#0052CB" p-id="9000"></path>
    <path d="M938.666667 476.842667a17.066667 17.066667 0 0 0-1.536-5.632v-1.365334a17.066667 17.066667 0 0 0-1.194667-2.218666L682.666667 147.626667V90.282667l28.672 9.557333A17.066667 17.066667 0 0 0 722.261333 68.266667L682.666667 54.272V17.066667a17.066667 17.066667 0 0 0-34.133334 0v25.770666L619.861333 34.133333a17.066667 17.066667 0 0 0-10.752 32.426667l39.424 12.288v69.461333L431.445333 465.578667 293.376 290.133333v-104.448a17.066667 17.066667 0 0 0-34.133333 0v105.642667L81.92 550.4V553.301333a17.066667 17.066667 0 0 0-1.194667 4.608v1.024L51.2 1005.909333A17.066667 17.066667 0 0 0 68.266667 1024h887.466666a17.066667 17.066667 0 0 0 17.066667-18.090667zM259.242667 989.866667H86.357333l25.941334-416.085334 146.944-34.133333z m0-485.034667L134.826667 533.504l124.416-181.76zM393.557333 989.866667h-100.181333V539.306667l127.658667 25.770666z m29.696-459.264l-129.877333-26.282667v-158.72l130.389333 165.034667zM648.533333 989.866667H427.861333L460.8 491.690667l187.733333-43.52z m0-576.853334l-166.058666 38.229334L648.533333 208.725333z m34.133334-210.261333l196.778666 249.344L682.666667 412.672zM856.234667 989.866667h-85.333334v-132.096a42.666667 42.666667 0 0 1 46.250667-42.496 43.008 43.008 0 0 1 39.082667 42.496z m17.066666 0v-132.096a59.733333 59.733333 0 1 0-119.466666 0V989.866667H682.666667V447.488l222.72 44.544L937.472 989.866667z"
          fill="#3D3D59" p-id="9001"></path>
</svg>