<svg t="1646277916225" class="icon" viewBox="0 0 1024 1024" version="1.1" xmlns="http://www.w3.org/2000/svg" p-id="9261"
     width="200" height="200">
    <path d="M271.400448 663.210667a1111.552 1111.552 0 0 1 256-31.914667A671.914667 671.914667 0 0 1 751.315115 665.6v336.725333H273.448448z"
          fill="#266BD2" p-id="9262"></path>
    <path d="M785.448448 663.210667l40.618667-104.448h166.4v441.514666h-230.4v-298.666666L785.448448 663.210667zM25.981781 554.496h177.152l66.048 159.914667v287.914666h-238.933333L25.981781 554.496z"
          fill="#0052CB" p-id="9263"></path>
    <path d="M826.067115 552.277333h160.085333a91.648 91.648 0 0 0 19.285333-89.6c-17.066667-53.248-132.266667-132.266667-132.266666-132.266666l-74.581334 59.733333a472.064 472.064 0 0 1 27.477334 162.133333zM203.133781 554.496s-4.266667-106.666667 36.352-166.4l-87.552-57.514667s-128 70.314667-128 128A310.272 310.272 0 0 0 34.515115 548.010667z"
          fill="#9DDAFE" p-id="9264"></path>
    <path d="M247.848448 669.696s106.666667-40.448 292.352-40.448 236.714667 44.714667 236.714667 44.714667 66.218667-64 38.4-202.581334S687.315115 273.066667 657.448448 251.733333s-138.581333-100.181333-138.581333-100.181333-85.333333 61.781333-121.514667 85.333333S235.048448 336.896 215.933781 443.733333s31.914667 225.962667 31.914667 225.962667z"
          fill="#FF6F7A" p-id="9265"></path>
    <path d="M395.133781 245.248a456.021333 456.021333 0 0 1 119.466667-10.581333 775.68 775.68 0 0 1 108.714667 4.266666L512.381781 153.6z"
          fill="#F43151" p-id="9266"></path>
    <path d="M478.248448 1006.933333V768a34.133333 34.133333 0 0 1 34.133333-34.133333 34.133333 34.133333 0 0 1 34.133334 34.133333v238.933333M351.955115 1006.933333V776.362667a34.133333 34.133333 0 0 1 34.133333-34.133334 34.133333 34.133333 0 0 1 34.133333 34.133334V1006.933333M604.541781 1006.933333V776.362667a34.133333 34.133333 0 0 1 34.133334-34.133334 34.133333 34.133333 0 0 1 34.133333 34.133334V1006.933333"
          fill="#0052CB" p-id="9267"></path>
    <path d="M36.563115 563.029333H77.181781v436.565334H36.563115zM43.048448 557.397333h34.133333A132.096 132.096 0 0 1 75.816448 460.8c20.650667-46.08 46.933333-52.736 78.165333-110.421333 0 0-10.581333-3.584-49.834666 19.968s-76.8 61.098667-79.701334 115.882666 18.602667 71.168 18.602667 71.168zM283.347115 658.261333H324.648448v339.797334h-41.301333zM251.091115 656.896l42.666666-14.848a355.84 355.84 0 0 1-27.989333-151.381333c7.68-103.765333 70.826667-147.114667 137.728-207.872a811.861333 811.861333 0 0 0 111.957333-121.514667s-124.757333 69.290667-195.242666 135.338667-109.909333 125.781333-109.909334 201.557333 40.789333 158.72 40.789334 158.72z"
          fill="#FFFFFF" p-id="9268"></path>
    <path d="M934.269781 354.304A264.192 264.192 0 0 1 887.848448 318.805333v-68.266666a17.066667 17.066667 0 0 0-34.133333 0v68.266666a246.784 246.784 0 0 1-46.250667 35.669334l-13.312 8.362666a422.229333 422.229333 0 0 0-149.674667-136.533333 619.178667 619.178667 0 0 1-107.861333-81.92A34.133333 34.133333 0 0 0 529.448448 90.112V17.066667a17.066667 17.066667 0 0 0-34.133333 0v73.045333a34.133333 34.133333 0 0 0-7.68 52.906667 576.341333 576.341333 0 0 1-107.349334 82.773333 422.229333 422.229333 0 0 0-149.674666 136.533333l-13.312-8.362666A246.613333 246.613333 0 0 1 171.048448 318.634667v-68.266667a17.066667 17.066667 0 0 0-34.133333 0v68.266667a264.192 264.192 0 0 1-46.592 35.498666C49.192448 378.709333-5.079552 421.205333 0.381781 505.856a136.533333 136.533333 0 0 0 9.898667 42.837333 17.066667 17.066667 0 0 0-1.194667 6.144V1006.933333a17.066667 17.066667 0 0 0 17.066667 17.066667H998.269781a17.066667 17.066667 0 0 0 17.066667-17.066667V554.837333a17.066667 17.066667 0 0 0-1.194667-6.144 136.533333 136.533333 0 0 0 10.24-42.837333c5.461333-84.650667-48.810667-127.146667-90.112-151.552zM512.381781 167.253333a653.653333 653.653333 0 0 0 79.189334 64.512 707.072 707.072 0 0 0-76.117334-4.096 725.674667 725.674667 0 0 0-81.749333 4.608A609.621333 609.621333 0 0 0 512.381781 167.253333zM34.515115 503.466667c-3.584-51.2 18.944-87.722667 73.045333-119.466667a297.130667 297.130667 0 0 0 46.250667-34.133333 279.552 279.552 0 0 0 45.738666 34.133333c5.12 3.072 10.069333 6.144 14.506667 9.386667A305.834667 305.834667 0 0 0 188.115115 537.770667H43.048448A102.4 102.4 0 0 1 34.515115 503.466667zM256.381781 989.866667H43.560448V571.904h147.797333a262.485333 262.485333 0 0 0 34.133334 98.304A25.6 25.6 0 0 0 222.248448 682.666667c0 18.432 17.066667 29.525333 34.133333 36.522666z m155.306667 0h-51.2V776.362667a25.6 25.6 0 0 1 51.2 0z m126.293333 0h-51.2V768a25.6 25.6 0 0 1 51.2 0z m126.293334 0h-51.2V776.362667a25.6 25.6 0 0 1 51.2 0z m69.973333 0h-52.906667V776.362667a42.666667 42.666667 0 0 0-85.333333 0V989.866667h-40.96V768a42.666667 42.666667 0 0 0-85.333333 0v221.866667h-40.96V776.362667a42.666667 42.666667 0 0 0-85.333334 0V989.866667H290.515115V670.208A900.778667 900.778667 0 0 1 512.381781 648.533333a900.949333 900.949333 0 0 1 221.866667 22.016zM512.381781 614.4c-37.888 0-193.536 2.048-259.925333 34.133333a239.786667 239.786667 0 0 1-29.866667-102.4c-8.533333-123.562667 45.397333-212.992 175.104-290.133333a625.664 625.664 0 0 1 116.736-10.069333 641.706667 641.706667 0 0 1 110.250667 9.045333l2.048 1.365333c129.706667 76.8 183.637333 166.229333 175.104 290.133334a238.933333 238.933333 0 0 1-29.866667 102.4C705.917781 616.277333 550.269781 614.4 512.381781 614.4z m468.821334 375.466667H768.381781V719.018667c17.066667-7.168 34.133333-18.261333 34.133334-36.522667a25.6 25.6 0 0 0-3.242667-12.288 262.144 262.144 0 0 0 34.133333-98.304h147.797334zM990.248448 503.466667a102.4 102.4 0 0 1-8.192 34.133333H836.648448a305.834667 305.834667 0 0 0-26.453333-145.066667c4.608-3.072 9.386667-6.314667 14.506666-9.386666a280.576 280.576 0 0 0 45.738667-34.133334 297.130667 297.130667 0 0 0 46.250667 34.133334c54.101333 32.597333 76.8 69.461333 73.557333 120.32z"
          fill="#3D3D59" p-id="9269"></path>
</svg>