<svg t="1646228829629" class="icon" viewBox="0 0 1024 1024" version="1.1" xmlns="http://www.w3.org/2000/svg" p-id="8503"
     width="200" height="200">
    <path d="M518.485333 452.266667l381.781334 85.333333v467.285333H522.752l-4.266667-552.618666z" fill="#266BD2"
          p-id="8504"></path>
    <path d="M187.733333 538.965333l337.066667-83.797333v554.666667H443.733333V644.266667l-254.634666 39.765333-1.365334-145.066667z"
          fill="#9DDAFE" p-id="8505"></path>
    <path d="M905.898667 689.834667L1006.933333 823.466667v182.101333h-98.133333l-2.901333-315.733333zM274.432 814.933333l170.666667-167.765333V998.4h-162.133334l-8.533333-183.466667z"
          fill="#0052CB" p-id="8506"></path>
    <path d="M34.133333 833.365333l238.933334-24.064 143.701333-149.333333-233.301333 24.064L34.133333 833.365333z"
          fill="#9DDAFE" p-id="8507"></path>
    <path d="M18.432 843.434667l246.101333-25.6v184.832H21.333333l-2.901333-159.232z" fill="#266BD2" p-id="8508"></path>
    <path d="M521.898667 448V90.965333l389.802666 426.666667-389.802666-69.632z" fill="#F43151" p-id="8509"></path>
    <path d="M184.832 521.898667l332.8-420.864v341.333333l-332.8 79.530667z" fill="#FFDEDC" p-id="8510"></path>
    <path d="M24.576 844.8H68.266667v153.6H24.576zM92.16 824.832H49.493333l170.666667-153.6h42.666667l-170.666667 153.6z"
          fill="#FFFFFF" p-id="8511"></path>
    <path d="M196.266667 530.773333H238.933333v153.6h-42.666666z" fill="#FFFFFF" p-id="8512"></path>
    <path d="M525.653333 103.424L157.866667 540.501333l75.434666-15.701333L525.653333 103.424z" fill="#FFFFFF"
          p-id="8513"></path>
    <path d="M633.173333 559.786667l-34.133333-5.973334v93.866667l34.133333 4.437333V559.786667zM701.44 571.562667l-34.133333-5.802667v91.306667l34.133333 4.778666v-90.282666zM769.706667 583.509333l-34.133334-5.802666v88.917333l34.133334 4.608v-87.722667zM837.973333 595.285333l-34.133333-5.973333v86.698667l34.133333 4.778666v-85.504z"
          fill="#3D3D59" p-id="8514"></path>
    <path d="M1020.757333 814.250667l-100.864-139.434667v-121.685333l13.482667 2.901333h3.584a17.066667 17.066667 0 0 0 12.629333-28.672L537.6 78.677333V17.066667a17.066667 17.066667 0 0 0-34.133333 0v62.122666L142.165333 516.437333a17.066667 17.066667 0 0 0 17.066667 27.648l13.482667-2.901333v129.024L5.632 821.930667a17.066667 17.066667 0 0 0-5.632 12.629333V1006.933333a17.066667 17.066667 0 0 0 17.066667 17.066667h989.866666a17.066667 17.066667 0 0 0 17.066667-17.066667V824.32a17.066667 17.066667 0 0 0-3.242667-10.069333zM256 989.866667H34.133333v-136.533334l221.866667-22.186666z m9.386667-193.877334L63.488 815.445333l131.925333-119.466666L396.288 665.6zM426.666667 989.866667h-136.533334V819.2l136.533334-135.168z m76.8 0H460.8V643.413333a17.066667 17.066667 0 0 0-10.581333-15.701333h-1.194667a17.066667 17.066667 0 0 0-9.386667-1.706667l-233.130666 34.133334v-126.122667l296.96-62.464z m0-553.130667l-301.738667 63.488-1.024-0.853333L503.466667 132.778667zM885.76 989.866667H537.6V471.722667L885.76 546.133333zM537.6 436.736v-307.2L887.466667 512zM989.866667 989.866667h-68.266667V735.402667l68.266667 94.378666z"
          fill="#3D3D59" p-id="8515"></path>
</svg>