<svg t="1646233273996" class="icon" viewBox="0 0 1024 1024" version="1.1" xmlns="http://www.w3.org/2000/svg" p-id="9317"
     width="200" height="200">
    <path d="M38.414677 644.266667s110.933333-72.533333 480.085334-72.533334 460.8 59.733333 460.8 59.733334v369.152H46.948011z"
          fill="#266BD2" p-id="9318"></path>
    <path d="M61.966677 612.352L375.481344 307.2a1078.784 1078.784 0 0 1 134.485333-14.848 810.154667 810.154667 0 0 1 138.752 10.752L955.748011 605.866667s-136.533333-29.866667-443.733334-29.866667-450.048 36.352-450.048 36.352z"
          fill="#9DDAFE" p-id="9319"></path>
    <path d="M407.566677 565.418667h209.066667v443.733333H407.566677z" fill="#0052CB" p-id="9320"></path>
    <path d="M317.966677 230.912a201.045333 29.354667 0 1 0 402.090667 0 201.045333 29.354667 0 1 0-402.090667 0Z"
          fill="#F43151" p-id="9321"></path>
    <path d="M345.614677 194.901333l106.666667-93.866666h106.666667l112.298666 95.232s-93.866667 4.266667-163.498666 1.365333-162.133333-2.730667-162.133334-2.730667z"
          fill="#FFDEDC" p-id="9322"></path>
    <path d="M381.966677 207.018667a886.442667 886.442667 0 0 1 134.485334-10.581334 563.2 563.2 0 0 1 123.733333 12.8v87.552a900.608 900.608 0 0 0-119.466667-10.581333 1095.509333 1095.509333 0 0 0-140.8 15.018667zM460.814677 97.109333h107.690667s10.752-62.976-30.890667-85.333333c-31.744-17.066667-70.144 10.752-77.482666 37.376A82.602667 82.602667 0 0 0 460.814677 97.109333z"
          fill="#F43151" p-id="9323"></path>
    <path d="M58.724011 610.133333H102.414677v389.290667H58.724011zM141.668011 588.629333l-39.253334 3.413334L402.788011 308.906667H426.681344L141.668011 588.629333zM409.273344 190.293333l-39.253333 3.413334 95.914666-77.141334h23.893334l-80.554667 73.728zM477.881344 95.744a51.2 51.2 0 0 1 6.997333 0A57.685333 57.685333 0 0 1 477.881344 68.266667 58.88 58.88 0 0 1 524.814677 10.24 58.88 58.88 0 0 0 453.817344 68.266667a57.685333 57.685333 0 0 0 8.874667 30.378666 47.957333 47.957333 0 0 1 15.189333-2.901333z"
          fill="#FFFFFF" p-id="9324"></path>
    <path d="M1016.505344 636.586667l-3.584-5.12-3.072-2.901334L657.081344 296.106667v-24.405334c54.101333-8.704 76.8-20.821333 76.8-41.301333a24.405333 24.405333 0 0 0-10.069333-18.432l-146.090667-121.856h-1.194667A68.266667 68.266667 0 0 0 580.281344 68.266667a68.266667 68.266667 0 0 0-136.533333 0 68.266667 68.266667 0 0 0 3.754666 21.162666h-1.194666l-146.090667 121.856A24.405333 24.405333 0 0 0 290.148011 230.4c0 20.48 22.698667 32.597333 76.8 41.301333v24.405334L14.180011 629.418667 11.108011 631.466667l-4.096 3.754666A32.085333 32.085333 0 0 0 0.014677 656.213333c0 21.333333 20.650667 34.133333 34.133334 41.130667V1006.933333a17.066667 17.066667 0 0 0 17.066666 17.066667h921.6a17.066667 17.066667 0 0 0 17.066667-17.066667V697.344c3.242667-1.706667 6.314667-3.413333 9.216-5.12A43.690667 43.690667 0 0 0 1024.014677 656.213333a32.085333 32.085333 0 0 0-7.509333-19.626666zM401.081344 218.794667a1017.173333 1017.173333 0 0 1 110.933333-5.461334 1017.002667 1017.002667 0 0 1 110.933334 5.461334v63.146666A516.096 516.096 0 0 0 512.014677 273.066667a516.096 516.096 0 0 0-110.933333 9.045333z m256 18.261333v-13.482667a273.066667 273.066667 0 0 1 30.037333 6.656 247.466667 247.466667 0 0 1-30.037333 6.997334zM512.014677 17.066667a51.2 51.2 0 0 1 47.786667 68.266666h-95.573333a51.2 51.2 0 0 1-3.413334-17.066666 51.2 51.2 0 0 1 51.2-51.2z m-48.64 102.4h97.28l79.701334 65.877333A1041.066667 1041.066667 0 0 0 512.014677 179.2a1041.066667 1041.066667 0 0 0-128.341333 6.997333z m-126.464 110.933333a273.066667 273.066667 0 0 1 30.037334-6.656v13.482667a249.173333 249.173333 0 0 1-30.037334-6.826667z m53.76 90.282667c9.898667-5.12 51.2-13.653333 121.344-13.653334s111.445333 8.362667 121.344 13.653334L921.614677 592.213333c-145.237333-34.133333-394.069333-35.498667-409.6-35.498666s-263.68 0-409.6 35.498666zM512.014677 590.848c32.938667 0 64.170667 0 93.866667 1.536V989.866667h-187.733333V592.384c29.696-1.024 60.928-1.536 93.866666-1.536zM68.281344 637.44c52.906667-18.432 165.888-38.229333 332.8-44.544V989.866667H68.281344zM622.948011 989.866667V592.896c166.912 6.314667 279.893333 26.112 332.8 43.861333V989.866667z"
          fill="#3D3D59" p-id="9325"></path>
</svg>