<svg t="1646277856104" class="icon" viewBox="0 0 1024 1024" version="1.1" xmlns="http://www.w3.org/2000/svg" p-id="9095"
     width="200" height="200">
    <path d="M426.717481 21.9304L893.724556 128.533549v198.367139l-368.932178-51.169511L426.717481 303.362713V21.9304zM422.453355 499.512507l467.007075 53.386857v441.251754H426.717481l-4.264126-494.638611z"
          fill="#266BD2" p-id="9096"></path>
    <path d="M450.255456 497.465727l78.801048-25.584756 388.035462 41.447304L889.46043 546.417893l-439.204974-48.952166z"
          fill="#0052CB" p-id="9097"></path>
    <path d="M116.800806 122.904902l307.017069-106.603148v987.742137H119.700412L116.800806 122.904902z" fill="#9DDAFE"
          p-id="9098"></path>
    <path d="M524.792378 275.731177l432.894067 70.272796v159.990006l-428.629941-34.113008-4.264126-196.149794z"
          fill="#F43151" p-id="9099"></path>
    <path d="M424.6707 305.580059l106.603149-29.848882v187.621542l-100.292242 23.36741-6.310907-181.14007z"
          fill="#FFDEDC" p-id="9100"></path>
    <path d="M767.847557 1006.943496H563.169511V773.439959a68.226015 68.226015 0 0 1 73.342967-68.226016l68.226015 5.116952a68.226015 68.226015 0 0 1 63.109064 68.226015z"
          fill="#0052CB" p-id="9101"></path>
    <path d="M494.943496 273.513831V135.35615l327.484874 64.814715v112.572925" fill="#9DDAFE" p-id="9102"></path>
    <path d="M336.488576 391.203708l-136.452031 28.996056V177.99741l136.452031-42.64126v255.847558z" fill="#266BD2"
          p-id="9103"></path>
    <path d="M119.700412 109.94196h51.169511v891.37289H119.700412zM434.222343 292.275986H477.886992v187.962672h-43.664649z"
          fill="#FFFFFF" p-id="9104"></path>
    <path d="M958.368705 328.265209L904.299588 319.225262V120.005297a17.056504 17.056504 0 0 0-13.304073-17.056504l-460.525603-102.339023a17.056504 17.056504 0 0 0-9.039947 0l-307.017069 102.339023A17.056504 17.056504 0 0 0 102.643908 120.005297v886.938199a17.056504 17.056504 0 0 0 17.056504 17.056504h767.542672a17.056504 17.056504 0 0 0 17.056504-17.056504V559.721966l56.457028-26.096451a17.056504 17.056504 0 0 0 11.768987-16.203679V345.151147a17.056504 17.056504 0 0 0-14.156898-16.885938z m-89.205515 209.965562l-396.563714-39.059394 54.239682-9.722207 364.838617 38.377133zM813.900118 303.874408L529.056504 256.457328a17.056504 17.056504 0 0 0-7.163732 0l-18.421024 4.946386V145.760618l310.42837 61.403413z m-304.799724-9.039947v163.060177L443.773985 469.663625v-157.43153zM938.412596 498.489117l-395.199194-41.617869v-164.083567L938.412596 358.796351z m-68.226016-185.063067L830.956622 307.626839v-107.455974a8.528252 8.528252 0 0 0-6.822602-8.357687l-327.484873-64.814715a8.528252 8.528252 0 0 0-10.233903 8.357687v130.141125l-44.00578 11.768987v-238.791053L870.18658 133.6505zM408.296457 41.886509v451.315092L136.756916 539.936421V132.28598zM136.756916 557.334055l271.539541-46.73482V989.886992H136.756916zM759.319306 989.886992h-187.621543V773.439959a59.697763 59.697763 0 0 1 64.132455-59.527199l68.226015 5.116951a60.038893 60.038893 0 0 1 55.263073 59.527199z m17.056503 0V778.55691a77.095397 77.095397 0 0 0-70.955056-76.583702l-68.226015-5.116952a76.754267 76.754267 0 0 0-82.553478 76.583703V989.886992h-112.231796V513.328275L870.18658 555.45784V989.886992z"
          fill="#3D3D59" p-id="9105"></path>
    <path d="M200.036545 428.728016h1.70565l136.452031-28.996056a8.528252 8.528252 0 0 0 6.822601-8.357687V135.35615a8.528252 8.528252 0 0 0-3.4113-6.822601 8.698817 8.698817 0 0 0-7.675427-1.193956l-136.452031 42.64126a8.528252 8.528252 0 0 0-5.969776 8.187122V420.199764a8.528252 8.528252 0 0 0 8.528252 8.528252z m8.528252-19.103284V300.804237l119.395527-31.383967v114.960836z m119.395527-262.670159v104.897498l-119.395527 31.383968v-98.927723z"
          fill="#3D3D59" p-id="9106"></path>
</svg>