<svg t="1646054414411" class="icon" viewBox="0 0 1024 1024" version="1.1" xmlns="http://www.w3.org/2000/svg"
     p-id="94759" width="200" height="200">
    <path d="M502.8864 336.128l-52.4288-34.9696a29.0816 29.0816 0 0 0-32.3584 0l-52.4288 34.9696c-19.3536 12.9024-45.312-0.9728-45.312-24.2688V128.4608h227.8912v183.3984c0 23.296-25.9584 37.1712-45.3632 24.2688z"
          fill="#F55C04" p-id="94760"></path>
    <path d="M621.1584 926.3104H400.9472c-154.2656 0-279.7568-125.4912-279.7568-279.7568V377.4464c0-154.2656 125.4912-279.7568 279.7568-279.7568h220.2112c154.2656 0 279.7568 125.4912 279.7568 279.7568v269.056c0 154.2656-125.4912 279.808-279.7568 279.808zM400.9472 159.1808c-120.3712 0-218.3168 97.9456-218.3168 218.3168v269.056c0 120.3712 97.9456 218.3168 218.3168 218.3168h220.2112c120.3712 0 218.3168-97.9456 218.3168-218.3168V377.4464c0-120.3712-97.9456-218.3168-218.3168-218.3168H400.9472z"
          fill="#333333" p-id="94761"></path>
    <path d="M663.3984 721.2544h-115.1488c-16.9472 0-30.72-13.7728-30.72-30.72s13.7728-30.72 30.72-30.72h115.1488c16.9472 0 30.72 13.7728 30.72 30.72s-13.7728 30.72-30.72 30.72z"
          fill="#333333" p-id="94762"></path>
</svg>