<svg t="1646054216369" class="icon" viewBox="0 0 1024 1024" version="1.1" xmlns="http://www.w3.org/2000/svg"
     p-id="94449" width="200" height="200">
    <path d="M512.1536 921.9584c-227.4304 0-412.5184-185.0368-412.5184-412.5184s185.0368-412.5184 412.5184-412.5184S924.672 281.9584 924.672 509.44s-185.0368 412.5184-412.5184 412.5184z m0-763.5456c-193.5872 0-351.0784 157.4912-351.0784 351.0784s157.4912 351.0784 351.0784 351.0784 351.0784-157.4912 351.0784-351.0784-157.4912-351.0784-351.0784-351.0784z"
          fill="#333333" p-id="94450"></path>
    <path d="M390.8608 540.2112H430.08v99.328c0 17.0496 13.824 30.8736 30.8736 30.8736h102.4c17.0496 0 30.8736-13.824 30.8736-30.8736v-99.328h39.2192c34.816 0 52.3776-41.9328 28.0064-66.7648l-121.344-123.4432c-15.36-15.6672-40.6016-15.6672-55.9616 0l-121.344 123.4432c-24.32 24.832-6.7584 66.7648 28.0576 66.7648z"
          fill="#F55C04" p-id="94451"></path>
</svg>