<svg t="1646054233349" class="icon" viewBox="0 0 1024 1024" version="1.1" xmlns="http://www.w3.org/2000/svg"
     p-id="94604" width="200" height="200">
    <path d="M514.6112 921.9584c-227.4304 0-412.5184-185.0368-412.5184-412.5184s185.0368-412.5184 412.5184-412.5184 412.5184 185.0368 412.5184 412.5184-185.088 412.5184-412.5184 412.5184z m0-763.5456c-193.5872 0-351.0784 157.4912-351.0784 351.0784s157.4912 351.0784 351.0784 351.0784 351.0784-157.4912 351.0784-351.0784-157.4912-351.0784-351.0784-351.0784z"
          fill="#333333" p-id="94605"></path>
    <path d="M635.904 478.72h-39.2192V379.392c0-17.0496-13.824-30.8736-30.8736-30.8736h-102.4a30.8736 30.8736 0 0 0-30.8736 30.8736v99.328h-39.2192c-34.816 0-52.3776 41.9328-28.0064 66.7648l121.344 123.4432c15.36 15.6672 40.6016 15.6672 55.9616 0l121.344-123.4432c24.3712-24.832 6.7584-66.7648-28.0576-66.7648z"
          fill="#F55C04" p-id="94606"></path>
</svg>