<svg t="1645766674078" class="icon" viewBox="0 0 1024 1024" version="1.1" xmlns="http://www.w3.org/2000/svg"
     p-id="36991" width="1em" height="1em">
    <path d="M348.465319 456.993107a130.075746 130.075746 0 0 0-20.35396-16.617967 130.061746 130.061746 0 0 0-20.35196 16.617967c-26.857948 26.853948-39.331923 62.563878-37.665927 97.72781l109.017788 37.305927c15.737969-46.32391 2.985994-101.401802-30.645941-135.033737zM102.715799 744.608546c-31.293939 1.321997-62.203879 13.781973-86.097831 37.675926A130.097746 130.097746 0 0 0 0 802.638432a130.075746 130.075746 0 0 0 16.619968 20.351961c48.043906 48.045906 124.385757 50.363902 175.275657 7.141986l-89.179826-85.523833z"
          fill="#FFCF65" p-id="36992"></path>
    <path d="M341.779332 565.170896c-100.131804-30.84394-154.715698-79.679844-154.715697-169.09967 0-82.10784 61.181881-149.699708 140.409725-160.223687-0.006-0.281999-0.038-0.555999-0.042-0.833998-168.78167 11.093978-302.27341 151.375704-302.273409 322.963369 0 162.563682 205.069599 421.567177 437.625145 274.765464 8.589983-5.421989 14.277972-14.395972 15.985969-24.405953 8.319984-48.799905 19.155963-195.069619-136.989733-243.165525z"
          fill="#FFB450" p-id="36993"></path>
    <path d="M478.777065 808.258421c7.087986-41.739918 15.909969-154.403698-78.875846-216.349577-68.929865 48.641905-32.761936 104.299796-70.025863 141.563723-44.531913 44.529913-83.993836 24.755952-120.559765 108.987788l-1.445997 3.475993c72.925858 39.197923 161.657684 45.637911 254.837502-13.145975 8.625983-5.441989 14.361972-14.477972 16.069969-24.531952z"
          fill="#FF4B4B" p-id="36994"></path>
    <path d="M372.943272 234.155543c23.289955-15.46797 38.657924-41.905918 38.657924-71.95786 0-4.523991-0.451999-8.931983-1.121998-13.267974-4.335992-0.669999-8.745983-1.121998-13.267974-1.121998-39.115924 0-71.965859 26.065949-82.553839 61.74188-1.791997 6.041988-6.201988 10.963979-12.243976 12.749975-169.743668 50.139902-220.741569 160.597686-210.643588 249.829512 12.517976 110.571784 119.409767 211.105588 173.85766 240.35553a18.207964 18.207964 0 0 0 8.641983 2.177996 18.285964 18.285964 0 0 0 8.679983-34.393933c-49.999902-26.857948-144.481718-120.749764-154.819697-212.249585-8.133984-71.84586 33.665934-160.763686 170.337667-206.175597 8.397984-2.789995 17.377966 1.523997 21.189959 9.513981 13.855973 29.025943 43.237916 49.153904 77.555848 49.153904 4.523991 0 8.931983-0.451999 13.267974-1.123998 0.669999-4.335992 1.121998-8.745983 1.121998-13.267974-0.004-30.057941-15.36997-56.49589-38.659924-71.963859z"
          fill="#FFCF65" p-id="36995"></path>
    <path d="M310.857393 824.36439m-18.285964 0a18.285964 18.285964 0 1 0 36.571928 0 18.285964 18.285964 0 1 0-36.571928 0Z"
          fill="#FFCF65" p-id="36996"></path>
    <path d="M420.571179 696.36464m-18.285965 0a18.285964 18.285964 0 1 0 36.571929 0 18.285964 18.285964 0 1 0-36.571929 0Z"
          fill="#FFCF65" p-id="36997"></path>
    <path d="M675.534681 567.008893a130.075746 130.075746 0 0 0 20.35396 16.617967 130.061746 130.061746 0 0 0 20.35196-16.617967c26.857948-26.853948 39.331923-62.563878 37.665927-97.72781l-109.017788-37.305927c-15.739969 46.32391-2.985994 101.401802 30.645941 135.033737zM921.282201 279.395454c31.293939-1.321997 62.203879-13.781973 86.097831-37.675926a130.089746 130.089746 0 0 0 16.619968-20.35396 130.075746 130.075746 0 0 0-16.619968-20.351961c-48.043906-48.045906-124.383757-50.363902-175.275657-7.141986l89.177826 85.523833z"
          fill="#FFCF65" p-id="36998"></path>
    <path d="M682.218668 458.833104c100.131804 30.84394 154.715698 79.679844 154.715697 169.09967 0 82.10784-61.181881 149.699708-140.409725 160.223687 0.006 0.281999 0.038 0.553999 0.042 0.833998 168.77967-11.097978 302.27341-151.377704 302.273409-322.965369 0-162.563682-205.069599-421.567177-437.625145-274.765464-8.589983 5.421989-14.277972 14.395972-15.985969 24.405953-8.319984 48.799905-19.155963 195.071619 136.989733 243.167525z"
          fill="#FFB450" p-id="36999"></path>
    <path d="M545.224935 215.745579c-7.087986 41.739918-15.909969 154.403698 78.875846 216.349577 68.929865-48.641905 32.761936-104.299796 70.025863-141.563723 44.531913-44.529913 83.993836-24.755952 120.559765-108.987788l1.445997-3.475993c-72.925858-39.197923-161.657684-45.637911-254.837502 13.145975-8.627983 5.437989-14.363972 14.473972-16.069969 24.531952z"
          fill="#FF4B4B" p-id="37000"></path>
    <path d="M651.056728 789.846457c-23.289955 15.46797-38.657924 41.907918-38.657924 71.95786 0 4.523991 0.451999 8.931983 1.121998 13.267974 4.335992 0.669999 8.745983 1.121998 13.267974 1.121998 39.115924 0 71.965859-26.065949 82.553839-61.74188 1.791997-6.041988 6.201988-10.963979 12.243976-12.749975 169.743668-50.139902 220.741569-160.597686 210.643588-249.829512-12.517976-110.571784-119.409767-211.105588-173.85766-240.35553a18.207964 18.207964 0 0 0-8.641983-2.177996 18.285964 18.285964 0 0 0-8.679983 34.393933c49.999902 26.857948 144.481718 120.749764 154.819697 212.249585 8.133984 71.84586-33.665934 160.763686-170.337667 206.175597-8.397984 2.789995-17.377966-1.523997-21.189959-9.513981-13.855973-29.025943-43.237916-49.153904-77.555848-49.153904-4.523991 0-8.931983 0.451999-13.267974 1.123998-0.669999 4.335992-1.121998 8.745983-1.121998 13.267974 0.002 30.055941 15.36797 56.49589 38.659924 71.963859z"
          fill="#FFCF65" p-id="37001"></path>
    <path d="M713.140607 199.63561m-18.285964 0a18.285964 18.285964 0 1 0 36.571928 0 18.285964 18.285964 0 1 0-36.571928 0Z"
          fill="#FFCF65" p-id="37002"></path>
    <path d="M603.426821 327.63536m-18.285964 0a18.285964 18.285964 0 1 0 36.571929 0 18.285964 18.285964 0 1 0-36.571929 0Z"
          fill="#FFCF65" p-id="37003"></path>
</svg>