<svg t="1646232997034" class="icon" viewBox="0 0 1024 1024" version="1.1" xmlns="http://www.w3.org/2000/svg" p-id="8668"
     width="200" height="200">
    <path d="M452.267691 538.965333l143.701333 27.136v113.664l102.4 11.434667v-116.565333l116.565333 24.064v105.301333l82.432 9.898667v-102.4l109.568 17.066666V1006.933333H452.267691V538.965333z"
          fill="#F43151" p-id="8669"></path>
    <path d="M10.753024 621.568l90.282667-13.482667v108.032l64-12.117333v-104.448l88.064-21.333333v114.346666l85.333333-18.432v-112.298666l113.834667-22.869334v458.752H13.483691L10.753024 621.568z"
          fill="#FFDEDC" p-id="8670"></path>
    <path d="M705.366357 580.266667V213.333333l236.202667 71.168v324.266667l-28.501333 2.730667v93.866666l-90.965334-8.533333-8.533333-105.130667-108.202667-11.434666zM339.969024 103.765333L597.334357 183.466667v375.466666l-140.8-18.432-109.568 24.064-6.997333-460.8z"
          fill="#266BD2" p-id="8671"></path>
    <path d="M599.553024 245.418667L699.734357 207.018667v477.866666l-106.666666-10.752 6.485333-428.714666zM98.134357 196.266667l241.152-85.333334v567.466667l-81.066666 17.066667V588.8l-83.285334 19.285333v85.333334l-73.898666 22.698666-2.901334-519.850666z"
          fill="#9DDAFE" p-id="8672"></path>
    <path d="M106.667691 186.368H153.601024v531.968H106.667691zM23.553024 628.906667h44.885333V1006.933333H23.553024z"
          fill="#FFFFFF" p-id="8673"></path>
    <path d="M791.041024 597.333333v-106.666666a42.666667 42.666667 0 0 1 51.2-41.813334 42.666667 42.666667 0 0 1 34.133333 41.813334v116.906666zM426.667691 546.133333v-123.221333a51.2 51.2 0 0 1 62.805333-49.834667A51.2 51.2 0 0 1 529.067691 422.912v130.048z"
          fill="#0052CB" p-id="8674"></path>
    <path d="M1009.494357 607.744l-42.496-6.656V279.552a17.066667 17.066667 0 0 0-12.458666-17.066667l-249.514667-70.485333a17.066667 17.066667 0 0 0-5.802667 0h-3.242666L614.401024 221.866667v-44.373334a17.066667 17.066667 0 0 0-12.288-17.066666l-256-75.093334a17.066667 17.066667 0 0 0-5.802667 0 17.066667 17.066667 0 0 0-4.096 1.024l-238.933333 92.16a17.066667 17.066667 0 0 0-11.946667 16.042667V597.333333l-70.826666 10.922667a17.066667 17.066667 0 0 0-14.506667 17.066667V1006.933333a17.066667 17.066667 0 0 0 17.066667 17.066667h989.866666a17.066667 17.066667 0 0 0 17.066667-17.066667V624.64a17.066667 17.066667 0 0 0-14.506667-16.896z m-76.629333-11.946667l-25.770667-4.096a17.066667 17.066667 0 0 0-13.653333 3.925334 17.066667 17.066667 0 0 0-5.461333 10.410666h-3.242667v-115.370666a51.2 51.2 0 0 0-102.4 0v81.92L716.801024 562.176v-331.093333l215.552 61.269333z m-65.024 7.168l-34.133333-5.461333v-2.218667a17.066667 17.066667 0 0 0-14.336-17.066666l-18.944-3.072v-85.333334a34.133333 34.133333 0 0 1 68.266666 0z m-34.133333 11.946667l54.613333 8.362667v72.362666l-54.613333-6.314666zM682.667691 232.789333v341.333334a17.066667 17.066667 0 0 0 0 2.730666v96.768L614.401024 665.6V258.048z m-102.4 307.2l-42.666667-6.314666v-110.762667a59.733333 59.733333 0 0 0-119.466667 0V529.066667l-59.733333 12.458666V125.269333l221.866667 65.024z m-125.44-18.432a17.066667 17.066667 0 0 0-5.973334 0l-13.653333 2.901334v-102.4a42.666667 42.666667 0 0 1 85.333333 0v109.226666zM119.467691 206.336l204.8-79.018667v542.208l-47.786667 8.021334v-95.573334a17.066667 17.066667 0 0 0-6.144-13.141333 17.066667 17.066667 0 0 0-13.994667-3.584l-88.746666 17.066667a17.066667 17.066667 0 0 0-13.994667 17.066666v94.890667l-34.133333 5.12V206.336zM34.134357 639.317333L85.334357 631.466667v86.698666a17.066667 17.066667 0 0 0 19.626667 17.066667l68.266667-10.24a17.066667 17.066667 0 0 0 14.506666-17.066667v-95.402666l54.613334-10.069334v95.232a17.066667 17.066667 0 0 0 19.797333 17.066667l81.92-13.653333a17.066667 17.066667 0 0 0 14.336-17.066667v-107.861333l76.8-15.872V989.866667H34.134357zM989.867691 989.866667H469.334357V559.104l110.933334 17.066667v105.301333a17.066667 17.066667 0 0 0 15.018666 17.066667l102.4 11.946666a17.066667 17.066667 0 0 0 19.114667-17.066666V597.333333l81.92 13.141334v94.72a17.066667 17.066667 0 0 0 15.189333 17.066666l88.746667 10.24a17.066667 17.066667 0 0 0 18.944-17.066666v-86.869334l68.266667 10.752z"
          fill="#3D3D59" p-id="8675"></path>
</svg>