<svg t="1646054185660" class="icon" viewBox="0 0 1024 1024" version="1.1" xmlns="http://www.w3.org/2000/svg"
     p-id="94292" width="200" height="200">
    <path d="M563.8656 937.728H446.9248c-31.5904 0-57.2416-25.6-57.2416-57.2416v-195.3792c0-31.5904 25.6-57.2416 57.2416-57.2416h116.9408c31.5904 0 57.2416 25.6 57.2416 57.2416v195.3792c0 31.6416-25.6512 57.2416-57.2416 57.2416z"
          fill="#F55C04" p-id="94293"></path>
    <path d="M725.9136 939.1616H289.9456c-81.2032 0-147.2-66.048-147.2-147.2v-219.5968c-28.0064-8.96-50.944-30.0544-62.1056-58.6752-15.0528-38.5536-5.0688-81.5104 25.344-109.5168L399.36 134.0928a161.7408 161.7408 0 0 1 216.8832-2.3552l307.5072 270.9504c31.3856 27.648 42.1376 70.8096 27.3408 109.9776-12.9536 34.304-42.6496 57.9584-77.9264 63.2832v215.9616c-0.0512 81.2032-66.0992 147.2512-147.2512 147.2512zM509.0816 152.6784c-24.4224 0-48.8448 8.9088-68.1472 26.6752l-293.376 270.0288c-17.8176 16.384-11.9296 36.3008-9.728 41.984s11.3664 24.32 35.584 24.32c16.9472 0 30.72 13.7728 30.72 30.72v245.5552c0 47.3088 38.5024 85.76 85.76 85.76h435.9168c47.3088 0 85.76-38.5024 85.76-85.76v-245.5552c0-16.9472 13.7728-30.72 30.72-30.72h15.4624c24.5248 0 33.536-18.8928 35.7376-24.7296s7.8848-25.9584-10.496-42.1888L575.488 177.8176c-18.944-16.7936-42.7008-25.1392-66.4064-25.1392z"
          fill="#333333" p-id="94294"></path>
</svg>