<svg t="1646278050051" class="icon" viewBox="0 0 1024 1024" version="1.1" xmlns="http://www.w3.org/2000/svg" p-id="9743"
     width="200" height="200">
    <path d="M601.529525 999.954927s-2.046389-387.961276 32.060097-569.066716S767.798644 25.703159 767.798644 25.703159s127.899322 287.858741 155.696108 547.920695 12.789932 420.021373 12.789932 420.021374z"
          fill="#266BD2" p-id="9744"></path>
    <path d="M582.429893 19.393459H767.798644s-95.839225 221.692158-123.636011 400.751209-42.633107 579.810259-42.633108 579.810259H503.473379s4.774908-251.705866-14.836322-383.697965C465.103582 458.514465 448.050339 392.347882 448.050339 392.347882s53.37665-291.951519 134.379554-372.954423z"
          fill="#9DDAFE" p-id="9745"></path>
    <path d="M234.884803 1004.218238a2827.086612 2827.086612 0 0 1 29.843175-437.074616 1224.593374 1224.593374 0 0 1 106.582768-347.374558A1278.993219 1278.993219 0 0 1 488.637057 579.933554 3053.894743 3053.894743 0 0 1 512 999.954927z"
          fill="#FF6F7A" p-id="9746"></path>
    <path d="M220.048481 213.288831h151.432797a2232.610563 2232.610563 0 0 0-100.102536 328.274927c-29.843175 151.432797-29.843175 462.65448-29.843175 462.65448H83.622538s-6.3097-266.371654 34.106486-466.747259a1421.387798 1421.387798 0 0 1 102.319457-324.182148z"
          fill="#FFDEDC" p-id="9747"></path>
    <path d="M710.158683 1006.264627v-40.927783c0-56.275702 2.216922-108.970222 6.139167-158.083562a62.244337 62.244337 0 0 1 124.147609 0c3.922246 49.11334 6.139167 102.319458 6.139167 158.083562V1006.264627z"
          fill="#0052CB" p-id="9748"></path>
    <path d="M331.406157 1006.264627v-30.695837c0-42.12151 1.705324-81.685034 4.604376-119.3727a46.725886 46.725886 0 0 1 93.110706 0c2.899051 36.835005 4.604376 76.398528 4.604376 119.3727V1006.264627z"
          fill="#F43151" p-id="9749"></path>
    <path d="M274.277794 208.684456h-51.159729S85.668927 442.484416 85.668927 896.271211q0 56.275702 1.875857 109.993416h51.159728Q136.828656 952.546912 136.828656 896.271211c0-453.786794 137.449138-687.586755 137.449138-687.586755zM443.787028 392.347882c51.159729-244.372971 123.977076-369.032177 123.977076-369.032177H631.3727s-99.590939 169.338702-146.487356 500.342148z"
          fill="#FFFFFF" p-id="9750"></path>
    <path d="M782.464433 8.479384A17.053243 17.053243 0 0 0 767.798644 0.123295a17.053243 17.053243 0 0 0-4.092778 0 17.053243 17.053243 0 0 0-2.728519 0H580.212972a17.053243 17.053243 0 0 0-14.665789 8.356089C563.159729 13.595357 498.357406 124.782501 448.732469 341.188153a791.952601 791.952601 0 0 0-59.515818-141.882981 17.053243 17.053243 0 0 0-14.665789-8.356089h-151.432797a17.053243 17.053243 0 0 0-14.665789 8.356089C202.824706 209.70765 68.615684 443.507611 68.615684 896.271211c0 36.664472 0 73.840542 1.875857 110.675546a17.053243 17.053243 0 0 0 17.053243 17.053243h149.215875L239.148113 1023.31787H594.708228a16.030048 16.030048 0 0 0 2.557987 0h338.677404a17.053243 17.053243 0 0 0 17.053243-17.053243c1.534792-45.702691 2.387454-91.746447 2.387454-136.425943C955.384316 309.639654 789.626795 20.587186 782.464433 8.479384z m-562.757017 887.621294c0 30.695837 0 61.903272 1.534792 92.940174H104.086429C102.72217 958.174482 102.72217 926.967048 102.72217 896.271211c0-396.317366 107.094366-625.171886 130.627841-670.533512h113.063c-35.12968 72.30575-126.535062 296.385362-126.535062 670.533512zM425.028461 989.211384h-85.266215v-14.154191c0-39.904588 1.534792-79.468112 4.604376-117.837909a38.199264 38.199264 0 0 1 76.227996 0c3.069584 38.369797 4.604376 77.93332 4.604376 117.837909-0.170532 4.604376-0.170532 9.379284-0.170533 14.154191z m68.212972 0h-51.159729v-14.154191c0-40.416186-1.534792-80.491307-4.604376-119.372701a55.252507 55.252507 0 0 0-110.163949 0c-3.069584 38.710861-4.604376 78.956515-4.604375 119.372701V989.211384H256.201356c-0.852662-31.036902-1.364259-62.244337-1.364259-92.940173 0-354.025323 85.266215-574.182689 120.395895-649.728556C409.680542 322.088521 494.946757 542.586952 494.946757 896.271211c0 30.695837 0 61.903272-1.364259 92.940173z m86.971539-119.3727c0 39.392991 0 79.468112 2.046389 119.3727h-54.570378c0.852662-31.036902 1.534792-62.244337 1.534792-92.940173A1853.175908 1853.175908 0 0 0 469.025828 409.401125C512 194.189199 573.05061 66.972007 590.274385 34.229781h149.215876C698.391945 116.938009 580.212972 396.270128 580.212972 869.838684z m257.333435 119.3727h-119.3727v-23.19241c0-53.206118 2.046389-106.241703 6.139167-157.401432a53.717715 53.717715 0 0 1 107.264898 0c4.092778 51.159729 6.139167 104.195314 6.139168 157.401432 0 7.673959 0 15.518451-0.170533 23.19241z m81.855566 0h-64.802323v-23.19241c0-53.717715-2.046389-107.094366-6.139167-158.765692a70.770958 70.770958 0 0 0-141.200852 0c-4.092778 51.159729-6.139167 105.047976-6.139167 158.765692V989.211384h-85.266215C614.319458 949.306796 614.319458 909.231675 614.319458 869.838684c0-452.7636 112.551403-729.537732 153.479186-815.315544 40.927783 85.266215 153.479186 362.381412 153.479186 815.315544 0 39.392991 0 79.468112-1.875857 119.3727z"
          fill="#3D3D59" p-id="9751"></path>
</svg>