<svg t="1646278001443" class="icon" viewBox="0 0 1024 1024" version="1.1" xmlns="http://www.w3.org/2000/svg" p-id="9584"
     width="200" height="200">
    <path d="M411.89632 91.477333l593.066667 170.666667v204.970667l-593.066667-110.933334V91.477333z" fill="#F43151"
          p-id="9585"></path>
    <path d="M411.89632 356.181333L955.810987 471.381333v529.237334H411.89632V356.181333z" fill="#266BD2"
          p-id="9586"></path>
    <path d="M19.362987 272.896l392.533333-187.733333v264.533333l-390.485333 128-2.048-204.8z" fill="#FFDEDC"
          p-id="9587"></path>
    <path d="M64.077653 471.381333l347.818667-108.885333v638.122667H66.29632l-2.218667-529.237334z" fill="#9DDAFE"
          p-id="9588"></path>
    <path d="M23.629653 263.338667h44.885334v215.552H23.629653zM74.829653 462.848h44.885334v541.013333H74.829653z"
          fill="#FFFFFF" p-id="9589"></path>
    <path d="M1011.618987 238.933333l-597.333334-170.666666h-1.536a17.066667 17.066667 0 0 0-5.12 0h-2.730666a17.066667 17.066667 0 0 0-2.56 0l-392.533334 187.733333A17.066667 17.066667 0 0 0 0.077653 273.066667v216.746666a17.066667 17.066667 0 0 0 22.528 16.213334L51.277653 496.298667V1006.933333a17.066667 17.066667 0 0 0 17.066667 17.066667h887.466667a17.066667 17.066667 0 0 0 17.066666-17.066667V488.277333l30.72 6.144h3.413334a17.066667 17.066667 0 0 0 17.066666-17.066666V256a17.066667 17.066667 0 0 0-12.458666-17.066667zM34.210987 465.92V283.648l196.266666-93.866667v210.432zM392.610987 989.866667H85.410987V484.864l307.2-102.4z m0-643.925334l-145.066667 48.64V181.589333L392.610987 112.128z m34.133333-238.933333l418.133333 119.466667v201.386666L426.74432 344.234667zM672.50432 989.866667H426.74432V379.050667l245.76 49.152z m51.2 0h-34.133333V431.616l34.133333 6.826667zM938.74432 989.866667H740.770987V441.856L938.74432 481.450667z m51.2-532.992l-128-25.6V232.106667l128 36.522666z"
          fill="#3D3D59" p-id="9590"></path>
</svg>