<svg class="icon" viewBox="0 0 1024 1024" version="1.1" xmlns="http://www.w3.org/2000/svg" p-id="22474"><path d="M678.4 917.8112H345.3952c-119.3984 0-216.576-97.1776-216.576-216.576V368.1792c0-119.3984 97.1776-216.576 216.576-216.576h333.0048c119.3984 0 216.576 97.1264 216.576 216.576v333.0048c0 119.4496-97.1776 216.6272-216.576 216.6272zM345.3952 213.0944c-85.5552 0-155.136 69.5808-155.136 155.136v333.0048c0 85.5552 69.5808 155.136 155.136 155.136h333.0048c85.5552 0 155.136-69.5808 155.136-155.136V368.1792c0-85.5552-69.5808-155.136-155.136-155.136H345.3952z" fill="#333333" p-id="22475"></path><path d="M622.3872 249.9072H401.408c-24.4736 0-44.3392-19.8656-44.3392-44.3392V151.1936c0-24.4736 19.8656-44.3392 44.3392-44.3392h220.9792c24.4736 0 44.3392 19.8656 44.3392 44.3392v54.3744c0 24.4736-19.8656 44.3392-44.3392 44.3392z" fill="#F55C04" p-id="22476"></path><path d="M563.3024 469.76H327.6288c-16.9472 0-30.72-13.7728-30.72-30.72s13.7728-30.72 30.72-30.72h235.7248c16.9472 0 30.72 13.7728 30.72 30.72s-13.7728 30.72-30.7712 30.72zM696.1664 668.3648H327.6288c-16.9472 0-30.72-13.7728-30.72-30.72s13.7728-30.72 30.72-30.72h368.5376c16.9472 0 30.72 13.7728 30.72 30.72s-13.7728 30.72-30.72 30.72z" fill="#333333" p-id="22477"></path></svg>