<svg t="1646054037651" class="icon" viewBox="0 0 1024 1024" version="1.1" xmlns="http://www.w3.org/2000/svg"
     p-id="73928" width="200" height="200">
    <path d="M261.0688 813.5168c66.816 59.904 155.0848 96.4096 251.904 96.4096 94.72 0 181.1968-34.9696 247.4496-92.5696v-3.84c0-87.7056-71.1168-158.8224-158.8224-158.8224H419.8912c-87.7568 0-158.8224 71.1168-158.8224 158.8224z"
          fill="#F55C04" p-id="73929"></path>
    <path d="M512.9216 920.1664c-225.0752 0-408.1664-183.0912-408.1664-408.1664s183.0912-408.1664 408.1664-408.1664S921.088 286.9248 921.088 512s-183.0912 408.1664-408.1664 408.1664z m0-754.8928c-191.1808 0-346.7264 155.5456-346.7264 346.7264s155.5456 346.7264 346.7264 346.7264S859.648 703.1808 859.648 512s-155.4944-346.7264-346.7264-346.7264z"
          fill="#333333" p-id="73930"></path>
    <path d="M512.9216 590.9504c-77.4144 0-140.3904-62.976-140.3904-140.3904s62.976-140.3904 140.3904-140.3904S653.312 373.1456 653.312 450.56s-62.976 140.3904-140.3904 140.3904z m0-219.3408c-43.52 0-78.9504 35.4304-78.9504 78.9504s35.4304 78.9504 78.9504 78.9504S591.9232 494.08 591.9232 450.56s-35.4304-78.9504-79.0016-78.9504z"
          fill="#333333" p-id="73931"></path>
</svg>