<?xml version="1.0" standalone="no"?><!DOCTYPE svg PUBLIC "-//W3C//DTD SVG 1.1//EN"
        "http://www.w3.org/Graphics/SVG/1.1/DTD/svg11.dtd">
<svg class="icon" viewBox="0 0 1024 1024" version="1.1" xmlns="http://www.w3.org/2000/svg"
      xmlns:xlink="http://www.w3.org/1999/xlink" width="200" height="200">
    <defs>
        <style type="text/css"></style>
    </defs>
    <path d="M513.456814 508.74878677m-480.22399515 0a480.22397899 480.22397899 0 1 0 960.44797421 0 480.22397899 480.22397899 0 1 0-960.44797421 0Z"
          fill="#dbdbdb" ></path>
    <path d="M412.48663874 724.23390317c-22.16418162 0-40.63433039-18.47014857-40.6343463-40.63434662v-350.93290579c0-22.16418162 18.47014857-40.63433039 40.6343463-40.63433024 22.16418162 0 40.63433039 18.47014857 40.63433041 40.63433024v350.93290579c0 23.3955315-18.47014857 40.63433039-40.63433041 40.63434662zM614.42697319 724.23390317c-22.16418162 0-40.63433039-18.47014857-40.63433042-40.63434662v-350.93290579c0-22.16418162 18.47014857-40.63433039 40.63433042-40.63433024 22.16418162 0 40.63433039 18.47014857 40.63434643 40.63433024v350.93290579c0 23.3955315-18.47014857 40.63433039-40.63434643 40.63434662z"
          fill="#000"></path>
</svg>