<svg width="1024" height="1024" xmlns="http://www.w3.org/2000/svg" p-id="29227" version="1.1" class="icon" t="1645716962529">

 <g>
  <title>Layer 1</title>
  <path id="svg_1" p-id="29228" fill="#D7D4FF" d="m512,515.1744"/>
  <path id="svg_2" p-id="29229" fill="#AD9DFF" d="m481.792,482.7648m-288.4096,0a288.4096,288.4096 0 1 0 576.8192,0a288.4096,288.4096 0 1 0 -576.8192,0z"/>
  <path id="svg_3" p-id="29230" fill="#9F89FF" d="m196.2496,523.1616a285.5424,248.0128 0 1 0 571.0848,0a285.5424,248.0128 0 1 0 -571.0848,0z"/>
  <path id="svg_4" p-id="29231" fill="#8C6CFA" d="m204.9024,563.6096a276.8896,207.616 0 1 0 553.7792,0a276.8896,207.616 0 1 0 -553.7792,0z"/>
  <path id="svg_5" p-id="29232" fill="#805AF9" d="m220.0576,604.0064a261.7344,167.2192 0 1 0 523.4688,0a261.7344,167.2192 0 1 0 -523.4688,0z"/>
  <path id="svg_6" p-id="29233" fill="#FFFFFF" d="m296.192,512.768c-16.5888,0 -30.0032,-13.4144 -30.0032,-30.0032c0,-118.8864 96.7168,-215.6544 215.6544,-215.6544c16.5888,0 30.0032,13.4144 30.0032,30.0032s-13.4144,30.0032 -30.0032,30.0032c-85.8112,0 -155.5968,69.7856 -155.5968,155.5968a30.06464,30.06464 0 0 1 -30.0544,30.0544z"/>
  <path id="svg_7" p-id="29234" fill="#764BF6" d="m778.1888,742.912l-75.1616,-75.1616c6.2464,-7.4752 12.1856,-15.2576 17.664,-23.3472c-51.8656,-76.4928 -139.52,-126.7712 -238.8992,-126.7712c-99.3792,0 -187.0336,50.2784 -238.8992,126.7712c51.8656,76.4928 139.52,126.7712 238.8992,126.7712a287.1808,287.1808 0 0 0 161.8432,-49.664l77.9776,77.9776a39.8848,39.8848 0 0 0 28.3136,11.7248c10.24,0 20.48,-3.8912 28.3136,-11.7248c15.616,-15.616 15.616,-40.96 -0.0512,-56.576z"/>
 </g>
</svg>