<svg t="1645716962529" class="icon" viewBox="0 0 1024 1024" version="1.1" xmlns="http://www.w3.org/2000/svg"
     p-id="29227" width="1em" height="1em">
    <path d="M512 515.1744m-436.2752 0a436.2752 436.2752 0 1 0 872.5504 0 436.2752 436.2752 0 1 0-872.5504 0Z"
          fill="#D7D4FF" p-id="29228"></path>
    <path d="M481.792 482.7648m-288.4096 0a288.4096 288.4096 0 1 0 576.8192 0 288.4096 288.4096 0 1 0-576.8192 0Z"
          fill="#AD9DFF" p-id="29229"></path>
    <path d="M196.2496 523.1616a285.5424 248.0128 0 1 0 571.0848 0 285.5424 248.0128 0 1 0-571.0848 0Z" fill="#9F89FF"
          p-id="29230"></path>
    <path d="M204.9024 563.6096a276.8896 207.616 0 1 0 553.7792 0 276.8896 207.616 0 1 0-553.7792 0Z" fill="#8C6CFA"
          p-id="29231"></path>
    <path d="M220.0576 604.0064a261.7344 167.2192 0 1 0 523.4688 0 261.7344 167.2192 0 1 0-523.4688 0Z" fill="#805AF9"
          p-id="29232"></path>
    <path d="M296.192 512.768c-16.5888 0-30.0032-13.4144-30.0032-30.0032 0-118.8864 96.7168-215.6544 215.6544-215.6544 16.5888 0 30.0032 13.4144 30.0032 30.0032s-13.4144 30.0032-30.0032 30.0032c-85.8112 0-155.5968 69.7856-155.5968 155.5968a30.06464 30.06464 0 0 1-30.0544 30.0544z"
          fill="#FFFFFF" p-id="29233"></path>
    <path d="M778.1888 742.912l-75.1616-75.1616c6.2464-7.4752 12.1856-15.2576 17.664-23.3472-51.8656-76.4928-139.52-126.7712-238.8992-126.7712-99.3792 0-187.0336 50.2784-238.8992 126.7712 51.8656 76.4928 139.52 126.7712 238.8992 126.7712a287.1808 287.1808 0 0 0 161.8432-49.664l77.9776 77.9776a39.8848 39.8848 0 0 0 28.3136 11.7248c10.24 0 20.48-3.8912 28.3136-11.7248 15.616-15.616 15.616-40.96-0.0512-56.576z"
          fill="#764BF6" p-id="29234"></path>
</svg>