<svg t="1646054109349" class="icon" viewBox="0 0 1024 1024" version="1.1" xmlns="http://www.w3.org/2000/svg"
     p-id="94134" width="200" height="200">
    <path d="M617.8304 243.7632H396.8512c-24.4736 0-44.3392-19.8656-44.3392-44.3392V145.1008c0-24.4736 19.8656-44.3392 44.3392-44.3392h220.9792c24.4736 0 44.3392 19.8656 44.3392 44.3392v54.3744c-0.0512 24.4736-19.8656 44.288-44.3392 44.288z"
          fill="#F55C04" p-id="94135"></path>
    <path d="M673.8432 145.5104H340.7872c-119.3984 0-216.576 97.1776-216.576 216.576v333.0048c0 119.3984 97.1776 216.576 216.576 216.576h333.0048c119.3984 0 216.576-97.1264 216.576-216.576V362.0864c0.0512-119.3984-97.1264-216.576-216.5248-216.576z m155.136 549.632c0 85.5552-69.5808 155.136-155.136 155.136H340.7872c-85.5552 0-155.136-69.5808-155.136-155.136V362.0864c0-85.5552 69.5808-155.136 155.136-155.136h333.0048c85.5552 0 155.136 69.5808 155.136 155.136v333.056z"
          fill="#333333" p-id="94136"></path>
    <path d="M646.8608 631.3984a173.7216 173.7216 0 0 0 29.952-97.6896c0-96.2048-78.2848-174.4896-174.4896-174.4896s-174.4896 78.2848-174.4896 174.4896 78.2848 174.4896 174.4896 174.4896c37.888 0 73.0112-12.1856 101.632-32.8192l46.4384 46.4384a30.67392 30.67392 0 0 0 43.4176 0 30.72 30.72 0 0 0 0-43.4176l-46.9504-47.0016z m-257.5872-97.6896c0-62.3616 50.7392-113.0496 113.0496-113.0496 62.3104 0 113.0496 50.7392 113.0496 113.0496s-50.7392 113.0496-113.0496 113.0496c-62.3104 0-113.0496-50.688-113.0496-113.0496z"
          fill="#333333" p-id="94137"></path>
</svg>