<svg t="1645875827488" class="icon" viewBox="0 0 1024 1024" version="1.1" xmlns="http://www.w3.org/2000/svg" p-id="34305" width="200" height="200"><path d="M871.8 843.3L696.7 668.2c-4.7-4.7-11-7.3-17.7-7.3s-12.9 2.6-17.7 7.3c-4.7 4.7-7.3 11-7.3 17.7 0 6.7 2.6 12.9 7.3 17.7l175.1 175.1c4.7 4.7 11 7.3 17.7 7.3s12.9-2.6 17.7-7.3c4.7-4.7 7.3-11 7.3-17.7 0-6.7-2.6-13-7.3-17.7z" fill="#4E30DC" p-id="34306"></path><path d="M344 577.7c-1.6-6.5-5.7-12-11.4-15.4-1.1-0.7-27.1-17.9-52-60.2-21-35.7-21.5-65.7-21.6-66.8 0.3-13.8-10.7-25.3-24.5-25.7-6.7-0.2-13.1 2.3-18 6.9-4.9 4.6-7.7 10.9-7.9 17.6-0.1 1.8-0.9 43.7 28.5 93.6 32.7 55.5 68 76.9 69.5 77.8 3.4 2 7.4 3.3 11.4 3.5 9.5 0.6 18.4-4.1 23.2-12.2 3.5-5.8 4.5-12.6 2.8-19.1z" fill="#FF4E7D" p-id="34307"></path><path d="M781.2 352.2c-18.6-68.1-58.8-130.4-113.2-175.6-56.1-46.6-127.2-74.7-200.1-79.1-74-4.5-149.3 15.6-211.8 56.6C132.4 235.3 73.2 391.7 112 534.6c9.4 34.4 24.1 67.2 43.9 97.4 19.3 29.5 42.9 55.8 70.2 78.4 27.3 22.6 57.7 40.9 90.2 54.3 33.4 13.7 68.3 22.1 103.9 24.8 8.6 0.7 17.1 1 25.7 1 55.3 0 110.4-13.6 160.7-39.7 58.1-30.2 106-75.3 138.5-130.5 8.2-13.9 15.7-29 22.8-46.2 13.9-30 22.5-68.2 24.9-110.4 2.2-37.8-1.7-75.3-11.6-111.5z m-39.9 180.4c-4.6 15.2-10.7 30.7-18.1 46.1C666 695.5 536 765.5 407.1 748.9c-124.6-16-228.7-109.1-259.1-231.6-30-121.4 18.5-251.8 120.7-324.6 53-37.7 115.5-56.5 178-56.5 60.1 0 120.2 17.4 171.9 52.4 110.8 74.9 161.3 216.4 122.7 344z" fill="#4E30DC" p-id="34308"></path><path d="M445.9 795.9c-8.7 0-17.4-0.3-26.1-1-36.2-2.8-71.7-11.2-105.6-25.2-33.1-13.6-63.9-32.2-91.6-55.1-27.7-22.9-51.7-49.8-71.3-79.7-20.1-30.7-35.1-63.9-44.6-98.9C67.3 390.9 127.4 231.9 253 149.6c63.5-41.7 139.9-62.1 215.2-57.5 74.1 4.5 146.3 33.1 203.3 80.4 55.3 45.9 96.1 109.2 115 178.3 10.1 36.7 14 74.8 11.9 113.1-2.4 42.8-11.2 81.7-25.4 112.3-7.2 17.3-14.7 32.6-23.1 46.8-33.1 56-81.7 101.8-140.7 132.5-50.7 26.4-107.2 40.4-163.3 40.4z m1.3-693.5c-66.2 0-132.3 19.7-188.2 56.3-121.6 79.9-179.9 233.8-141.7 374.4 9.2 33.9 23.7 66.1 43.2 95.8 19 29 42.2 55 69.1 77.2 26.9 22.2 56.8 40.2 88.8 53.4 32.8 13.5 67.2 21.7 102.2 24.4 8.4 0.6 16.9 1 25.2 1 54.3 0 109-13.5 158.1-39.1 57.2-29.8 104.3-74.1 136.3-128.4 8.1-13.7 15.4-28.6 22.4-45.5l0.1-0.2c13.6-29.4 22.1-66.9 24.4-108.4 2.1-37.1-1.7-74-11.5-109.6-18.3-67-57.9-128.3-111.5-172.8-55.2-45.8-125.1-73.5-197-77.9-6.4-0.4-13.2-0.6-19.9-0.6zM445 756.8c-12.8 0-25.7-0.8-38.6-2.5-126.9-16.3-232.8-111-263.7-235.7-30.6-123.6 18.8-256.3 122.8-330.3 53-37.7 115.6-57.6 181.2-57.6 62.9 0 123.4 18.4 175 53.3 112.7 76.3 164.1 220.3 124.8 350.2-4.7 15.4-10.9 31.2-18.4 46.9C675.7 688.3 562.9 756.8 445 756.8z m1.8-615.1c-63.3 0-123.8 19.2-174.9 55.5C171.5 268.6 123.8 396.7 153.4 516c29.8 120.3 132 211.7 254.4 227.4 126.6 16.3 254.3-52.4 310.5-167.1 7.3-15.1 13.3-30.4 17.8-45.3 37.9-125.4-11.7-264.3-120.5-337.9-49.8-33.6-108.2-51.4-168.8-51.4z" fill="#4E30DC" p-id="34309"></path></svg>