<svg t="1646053977272" class="icon" viewBox="0 0 1024 1024" version="1.1" xmlns="http://www.w3.org/2000/svg"
     p-id="73126" width="200" height="200">
    <path d="M510.6688 508.4672m-128.6144 0a128.6144 128.6144 0 1 0 257.2288 0 128.6144 128.6144 0 1 0-257.2288 0Z"
          fill="#F55C04" p-id="73127"></path>
    <path d="M663.8592 902.6048c-30.8736 0-61.5936-11.9296-85.6064-34.8672-18.2784-17.4592-42.2912-27.0848-67.584-27.0848s-49.3056 9.6256-67.584 27.0848c-39.5264 37.7344-97.3312 45.6704-143.7696 19.712-3.072-1.6896-6.0928-3.4816-9.1136-5.2224-45.2608-26.7264-68.1472-80.2304-57.0368-133.12 5.12-24.4736 0.8192-49.7152-12.2368-71.0656a97.54112 97.54112 0 0 0-55.9616-42.9568c-51.6096-15.1552-86.9888-62.5152-88.1152-117.9136-0.0512-2.9184-0.0512-5.7856-0.0512-8.704 0-10.8544 0.4096-21.8112 1.2288-32.6144 3.84-50.688 38.4-93.3376 88.1152-108.5952 22.8864-7.0144 42.3424-22.1184 54.8352-42.5984 12.1344-19.8656 16.7936-43.4688 13.056-66.4576-8.0384-49.8176 16.128-100.3008 60.0576-125.696a458.752 458.752 0 0 1 18.3808-10.0352c43.4176-22.3232 96.5632-15.7696 135.424 16.7424 17.5616 14.6944 39.8336 22.784 62.72 22.784s45.2096-8.0896 62.72-22.784c38.8608-32.512 92.0064-39.1168 135.424-16.7424 6.1952 3.1744 12.3904 6.5536 18.3808 10.0352 43.9296 25.3952 68.096 75.8784 60.0576 125.696-3.6864 22.9888 0.9216 46.5408 13.056 66.4576a97.9456 97.9456 0 0 0 54.784 42.5984c49.7152 15.2576 84.3264 57.856 88.1152 108.5952 0.8192 10.8544 1.2288 21.8112 1.2288 32.6144 0 2.9184-0.0512 5.8368-0.1024 8.704-1.1264 55.3472-36.5568 102.7072-88.1152 117.9136a97.54112 97.54112 0 0 0-55.9616 42.9568 97.6896 97.6896 0 0 0-12.2368 71.0656c11.1104 52.8896-11.776 106.3936-57.0368 133.12-3.0208 1.792-6.0416 3.5328-9.1136 5.2224a117.6576 117.6576 0 0 1-57.9584 15.1552z m-153.1904-123.392c41.1648 0 80.2304 15.6672 110.0288 44.0832 19.9168 18.9952 48.5888 23.1936 71.3728 10.496 2.6112-1.4848 5.2224-2.9696 7.8336-4.5056 22.528-13.312 33.8432-40.4992 28.16-67.584a158.65856 158.65856 0 0 1 19.8656-115.712 159.10912 159.10912 0 0 1 91.0848-69.9392c25.344-7.4752 43.4688-32.2048 44.032-60.2112 0.0512-2.5088 0.1024-4.9664 0.1024-7.4752 0-9.2672-0.3584-18.688-1.0752-28.0064-1.8944-25.2928-19.5072-46.6944-44.9024-54.4768a158.8992 158.8992 0 0 1-89.2416-69.3248 159.4624 159.4624 0 0 1-21.2992-108.2368c3.9936-24.7808-8.1408-50.0224-30.1568-62.72-5.1712-2.9696-10.4448-5.888-15.7696-8.6016-21.3504-11.008-48.0256-7.3728-67.8912 9.2672-28.5696 23.9104-64.8704 37.0688-102.144 37.0688s-73.5744-13.1584-102.144-37.0688c-19.8656-16.64-46.5408-20.224-67.8912-9.2672-5.2736 2.7136-10.5984 5.632-15.7696 8.6016-22.016 12.6976-34.1504 37.9392-30.1568 62.72a159.232 159.232 0 0 1-21.2992 108.2368 159.23712 159.23712 0 0 1-89.2416 69.3248c-25.344 7.7824-42.9568 29.1328-44.9024 54.4768-0.6656 9.3696-1.024 18.7904-1.024 28.1088 0 2.5088 0 4.9664 0.0512 7.4752 0.5632 28.0064 18.688 52.736 44.032 60.2112a159.10912 159.10912 0 0 1 91.0848 69.9392 158.52544 158.52544 0 0 1 19.8656 115.6608c-5.6832 27.136 5.632 54.272 28.16 67.6352 2.6112 1.536 5.1712 3.0208 7.8336 4.5056 22.784 12.7488 51.456 8.4992 71.3728-10.496 29.7472-28.5184 68.864-44.1856 110.0288-44.1856z"
          fill="#333333" p-id="73128"></path>
</svg>