<svg width="1024" height="1024" xmlns="http://www.w3.org/2000/svg" t="1648652051172" class="icon" version="1.1" p-id="22423">
 <g>
  <title>Layer 1</title>
  <path d="m515.2256,513.6896" fill="#FFF7C5" p-id="22424" id="svg_1"/>
  <path d="m769.1776,386.304l-128.0512,0s61.2864,-214.9376 -63.8976,-218.0608c-31.2832,-0.768 -54.784,25.8048 -59.4944,68.096c-2.048,18.432 -4.864,47.9744 -16.3328,77.824c-21.9648,57.344 -77.9264,94.5664 -139.3664,94.5664l-71.4752,0c-32.4096,0 -58.6752,26.2656 -58.6752,58.6752l0,254.1056c0,32.4096 26.2656,58.6752 58.6752,58.6752l427.52,0c51.1488,0 66.7648,-25.0368 77.2096,-79.3088c10.4448,-54.272 38.6048,-196.1472 43.8272,-227.4304c5.1712,-31.2832 1.024,-87.1424 -69.9392,-87.1424z" fill="#F9E230" p-id="22425" id="svg_2"/>
  <path d="m758.016,457.5232l-128.0512,0s9.0624,-31.8464 13.1072,-71.2192l-1.8944,0s1.2288,-4.2496 2.9184,-11.4688c4.4032,-60.9792 -5.5808,-133.5808 -77.9776,-135.424c-31.2832,-0.768 -54.784,25.8048 -59.4944,68.096c-2.048,18.432 -4.864,47.9744 -16.3328,77.824c-21.9648,57.344 -77.9264,94.5664 -139.3664,94.5664l-99.8912,0c-7.2192,0 -13.8752,2.56 -19.0976,6.8096l0,234.8032c0,32.4096 26.2656,58.6752 58.6752,58.6752l427.52,0c51.1488,0 66.7648,-25.0368 77.2096,-79.3088c7.3728,-38.1952 23.5008,-119.8592 34.2016,-175.7696c-0.256,-30.6176 -13.7728,-67.584 -71.5264,-67.584z" fill="#F6DB2D" p-id="22426" id="svg_3"/>
  <path d="m521.7792,780.1856l196.2496,0c51.1488,0 66.7648,-25.0368 77.2096,-79.3088c4.9152,-25.7024 13.8752,-71.0144 22.4256,-114.944c-3.1744,-28.0064 -19.5072,-57.2416 -70.8608,-57.2416l-128.0512,0s61.2864,-214.9376 -63.8976,-218.0608c-31.2832,-0.768 -54.784,25.8048 -59.4944,68.096c-2.048,18.432 -4.864,47.9744 -16.3328,77.8752c-22.016,57.344 -77.9264,94.5664 -139.3664,94.5664l-99.8912,0c-2.7648,0 -5.376,0.4096 -7.936,1.0752l0,169.2672c0,32.4096 26.2656,58.6752 58.6752,58.6752l231.2704,0z" fill="#F5D228" p-id="22427" id="svg_4"/>
  <path d="m735.6928,599.9104l-128.0512,0s61.2864,-214.9376 -63.8976,-218.0608c-31.2832,-0.768 -54.784,25.8048 -59.4944,68.096c-2.048,18.432 -4.864,47.9744 -16.3328,77.824c-22.016,57.344 -77.9264,94.5664 -139.3664,94.5664l-96.6656,0l0,99.1744c0,32.4096 26.2656,58.6752 58.6752,58.6752l427.52,0c51.1488,0 66.7648,-25.0368 77.2096,-79.3088c2.5088,-13.056 6.0416,-31.1296 10.0352,-51.5584c-5.2736,-25.344 -23.0912,-49.408 -69.632,-49.408z" fill="#F2C824" p-id="22428" id="svg_5"/>
  <path d="m521.7792,780.1856l196.2496,0c46.7968,0 63.8464,-21.0432 74.3936,-66.1504c-6.912,-22.8352 -25.3952,-42.9056 -67.9424,-42.9056l-128.0512,0s61.2864,-214.9376 -63.8976,-218.0608c-31.2832,-0.768 -54.784,25.8048 -59.4944,68.096c-2.048,18.432 -4.864,47.9232 -16.3328,77.824c-21.9648,57.3952 -77.9264,94.6176 -139.3664,94.6176l-85.4528,0l0,27.9552c0,32.4096 26.2656,58.6752 58.6752,58.6752l231.2192,0l0,-0.0512z" fill="#F0BF21" p-id="22429" id="svg_6"/>
  <path d="m336.4864,736.4096c-18.5344,0 -33.536,-15.0016 -33.536,-33.536l0,-213.9136c0,-18.5344 15.0016,-33.536 33.536,-33.536s33.536,15.0016 33.536,33.536l0,213.9648c0,18.4832 -15.0016,33.4848 -33.536,33.4848z" fill="#FFFFFF" p-id="22430" id="svg_7"/>
 </g>

</svg>